<svg width="440" height="378" viewBox="0 0 440 378" fill="none" xmlns="http://www.w3.org/2000/svg">
<rect width="440" height="378" fill="white"/>
<path fill-rule="evenodd" clip-rule="evenodd" d="M97 66H342V271.166L301.166 312H97V66Z" fill="#1F2844"/>
<path fill-rule="evenodd" clip-rule="evenodd" d="M301.166 312L309.333 279.333L342 271.166L301.166 312Z" fill="#192037"/>
<path d="M301.166 312L309.333 279.333L342 271.166M301.166 312L342 271.166M301.166 312H97V66H342V271.166" stroke="#070A17" stroke-width="1.33333" stroke-miterlimit="8"/>
<path d="M187.258 158.908H191.362V156.419C210.301 162.136 219.234 175.721 218.542 197.675H213.935V213H229.34V197.675H224.693C225.28 177.667 218.491 163.51 204.434 155.376L234.555 160.888C235.027 163.853 237.595 166.038 240.612 166.042C240.658 166.042 240.699 166.029 240.741 166.029L240.612 193.604C240.612 194.168 241.072 194.625 241.639 194.625C241.961 194.625 242.266 194.474 242.459 194.217L251.919 182.391L267.133 182.103C267.7 182.103 268.159 181.646 268.159 181.083C268.159 180.761 268.007 180.459 267.749 180.266L245.535 163.561C247.577 160.87 247.039 157.042 244.333 155.011C241.629 152.98 237.781 153.515 235.74 156.206C235.58 156.418 235.433 156.64 235.302 156.87L191.362 148.834V143.583H175.96V158.908H187.258ZM225.236 208.917H218.039V201.759H225.236V208.917ZM180.064 147.667H187.258V154.825H180.064V147.667Z" fill="#9AA3C2"/>
<path d="M292.875 121.125H145.125C140.597 121.139 136.93 124.787 136.917 129.292V227.292C136.93 231.796 140.597 235.445 145.125 235.458H202.583V247.708H182.062V259.958H255.937V247.708H235.416V235.458H292.875C297.403 235.445 301.069 231.796 301.083 227.292V129.292C301.069 124.787 297.403 121.139 292.875 121.125ZM288.771 223.208H149.229V133.375H288.771V223.208Z" fill="#9AA3C2"/>
</svg>
