<svg width="440" height="378" viewBox="0 0 440 378" fill="none" xmlns="http://www.w3.org/2000/svg">
<rect width="440" height="378" fill="white"/>
<path fill-rule="evenodd" clip-rule="evenodd" d="M97 66H342V271.166L301.166 312H97V66Z" fill="#1F2844"/>
<path fill-rule="evenodd" clip-rule="evenodd" d="M301.166 312L309.333 279.333L342 271.166L301.166 312Z" fill="#192037"/>
<path d="M301.166 312L309.333 279.333L342 271.166M301.166 312L342 271.166M301.166 312H97V66H342V271.166" stroke="#070A17" stroke-width="1.33333" stroke-miterlimit="8"/>
<path d="M234 212.625C220.456 212.625 209.375 201.544 209.375 188C209.375 174.456 220.456 163.375 234 163.375C247.544 163.375 258.625 174.456 258.625 188C258.625 201.544 247.544 212.625 234 212.625ZM289.406 172.609C288.175 168.095 286.328 163.785 284.071 159.886L289.201 144.496L277.504 132.799L262.114 137.929C258.009 135.672 253.7 133.825 249.185 132.594L242.208 118.229H225.792L218.609 132.594C214.095 133.825 209.785 135.672 205.886 137.929L190.496 132.799L178.799 144.496L183.929 159.886C181.672 163.991 179.825 168.3 178.594 172.815L164.229 179.792V196.208L178.594 203.391C179.825 207.905 181.672 212.215 183.929 216.114L178.799 231.504L190.496 243.201L205.886 238.071C209.991 240.328 214.3 242.175 218.815 243.406L225.997 257.771H242.414L249.596 243.406C254.11 242.175 258.42 240.328 262.319 238.071L277.709 243.201L289.406 231.504L284.276 216.114C286.533 212.009 288.38 207.7 289.611 203.185L303.976 196.003V179.586L289.406 172.609Z" fill="#9AA3C2" stroke="#1F2844" stroke-width="2.05208"/>
<path d="M201.283 161.217L193 159L190.783 150.717L201.283 140.217C194.983 137.883 187.983 139.167 182.967 143.717C178.067 148.267 175.967 155.15 177.833 161.567L132.567 206.833C126.15 205.083 119.267 207.183 114.833 212.083C110.4 216.983 109 223.983 111.333 230.283L121.833 219.783L130 222L132.217 230.283L121.717 240.783C128.017 243.117 135.017 241.833 140.033 237.283C144.933 232.733 147.033 225.85 145.167 219.433L190.433 174.167C196.85 175.917 203.733 173.817 208.167 168.917C212.6 164.017 214 157.017 211.667 150.717L201.283 161.217Z" fill="#9AA3C2" stroke="#1F2844" stroke-width="1.16667"/>
</svg>
