<svg width="440" height="378" viewBox="0 0 440 378" fill="none" xmlns="http://www.w3.org/2000/svg">
<rect width="440" height="378" fill="white"/>
<path fill-rule="evenodd" clip-rule="evenodd" d="M97 79H343V283.999L302 325H97V79Z" fill="#1F2844"/>
<path fill-rule="evenodd" clip-rule="evenodd" d="M302 325L310.2 292.199L343 283.999L302 325Z" fill="#192037"/>
<path d="M302 325L310.2 292.199L343 283.999M302 325L343 283.999M302 325H97V79H343V283.999" stroke="#070A17" stroke-width="1.33333" stroke-miterlimit="8"/>
<path d="M287.69 143.108C286.06 133.512 277.48 126.163 267.48 126.163C266.46 126.163 265.23 126.367 264.21 126.367C259.31 120.242 251.76 116.363 243.18 116.363C230.73 116.363 220.32 124.733 217.05 136.167C205.62 138.413 197.04 148.417 197.04 160.462C197.04 174.142 208.07 185.167 221.54 185.167C221.54 185.167 281.97 185.167 282.79 185.167C294.63 185.167 303.41 175.571 303.41 163.729C303.41 153.929 296.68 145.763 287.69 143.108ZM281.57 172.917H221.13C216.44 172.508 212.35 169.854 210.31 165.771C208.47 161.483 208.88 156.583 211.74 152.704C214.19 149.438 217.87 147.6 221.75 147.6C222.36 147.6 223.18 147.6 223.79 147.804L227.46 148.417V144.333C227.46 136.983 232.36 130.654 239.51 129.021C240.73 128.817 241.96 128.613 243.18 128.613C249.1 128.613 254.41 131.879 257.07 137.188L258.29 139.638L260.95 138.617C262.17 138.208 263.6 138.004 265.03 138.004C267.68 138.004 270.13 138.821 272.38 140.25C275.65 142.7 277.69 146.579 277.69 150.663V153.929H281.77C287.08 153.929 291.37 158.217 291.37 163.525C291.16 168.629 286.88 172.917 281.57 172.917Z" fill="#9AA3C2"/>
<path d="M227.26 193.333H142.325C138.65 193.333 135.792 196.192 135.792 199.867V258.258C135.792 261.933 138.65 264.792 142.325 264.792H174.58V272.958H160.292V285.208H209.29V272.958H195V264.792H227.26C230.93 264.792 233.79 261.933 233.79 258.258V199.867C233.79 196.192 230.93 193.333 227.26 193.333ZM221.54 252.542H148.042V205.583H221.54V252.542Z" fill="#9AA3C2"/>
<path d="M264.01 193.333C266.05 195.988 267.07 199.458 267.07 202.725C267.07 208.85 263.6 214.363 258.29 217.221V208.85L243.39 223.958L258.29 238.658V230.288C273.6 226.204 282.59 210.483 278.3 195.171C278.1 194.558 277.89 193.946 277.69 193.333H264.01Z" fill="#9AA3C2"/>
<path d="M168.254 185.167C166.621 183.125 165.192 179.042 165.192 175.775C165.192 169.65 168.662 164.138 173.97 161.279V169.65L188.88 154.542L173.97 139.842V148.212C158.658 152.296 149.675 168.017 153.963 183.329C154.167 183.942 154.371 184.554 154.575 185.167H168.254Z" fill="#9AA3C2"/>
</svg>
