<?xml version="1.0" encoding="UTF-8"?>
<svg viewBox="0 0 100 100" version="1.1" xmlns="http://www.w3.org/2000/svg" xmlns:xlink="http://www.w3.org/1999/xlink">
    <g id="aws-logo" stroke="none" stroke-width="1" fill="none" fill-rule="evenodd">
        <path d="M28.3774834,41.6225166 C28.3774834,42.8476821 28.5099338,43.8410596 28.7417219,44.5695364 C29.0066225,45.2980132 29.3377483,46.0927152 29.8013245,46.9536424 C29.9668874,47.218543 30.0331126,47.4834437 30.0331126,47.7152318 C30.0331126,48.0463576 29.8344371,48.3774834 29.4039735,48.7086093 L27.3178808,50.0993377 C27.0198675,50.2980132 26.7218543,50.397351 26.4569536,50.397351 C26.1258278,50.397351 25.794702,50.2317881 25.4635762,49.9337748 C25,49.4370861 24.602649,48.9072848 24.2715232,48.3774834 C23.9403974,47.8145695 23.6092715,47.1854305 23.2450331,46.4238411 C20.6622517,49.4701987 17.4172185,50.9933775 13.5099338,50.9933775 C10.7284768,50.9933775 8.50993377,50.1986755 6.88741722,48.6092715 C5.26490066,47.0198675 4.43708609,44.9006623 4.43708609,42.2516556 C4.43708609,39.4370861 5.43046358,37.1523179 7.45033113,35.4304636 C9.47019868,33.7086093 12.1523179,32.8476821 15.5629139,32.8476821 C16.6887417,32.8476821 17.8476821,32.9470199 19.0728477,33.1125828 C20.2980132,33.2781457 21.5562914,33.5430464 22.8807947,33.8410596 L22.8807947,31.4238411 C22.8807947,28.9072848 22.3509934,27.1523179 21.3245033,26.1258278 C20.2649007,25.0993377 18.4768212,24.602649 15.9271523,24.602649 C14.7682119,24.602649 13.5761589,24.7350993 12.3509934,25.0331126 C11.1258278,25.3311258 9.93377483,25.6953642 8.77483444,26.1589404 C8.24503311,26.3907285 7.84768212,26.5231788 7.61589404,26.589404 C7.38410596,26.6556291 7.21854305,26.6887417 7.08609272,26.6887417 C6.62251656,26.6887417 6.39072848,26.3576159 6.39072848,25.6622517 L6.39072848,24.0397351 C6.39072848,23.5099338 6.45695364,23.1125828 6.62251656,22.8807947 C6.78807947,22.6490066 7.08609272,22.4172185 7.54966887,22.1854305 C8.70860927,21.589404 10.0993377,21.0927152 11.7218543,20.6953642 C13.3443709,20.2649007 15.0662252,20.0662252 16.8874172,20.0662252 C20.8278146,20.0662252 23.7086093,20.9602649 25.5629139,22.7483444 C27.384106,24.5364238 28.3112583,27.2516556 28.3112583,30.8940397 L28.3112583,41.6225166 L28.3774834,41.6225166 Z M14.9337748,46.6556291 C16.0264901,46.6556291 17.1523179,46.4569536 18.3443709,46.0596026 C19.5364238,45.6622517 20.5960265,44.9337748 21.4900662,43.9403974 C22.0198675,43.3112583 22.4172185,42.615894 22.615894,41.8211921 C22.8145695,41.0264901 22.9470199,40.0662252 22.9470199,38.9403974 L22.9470199,37.5496689 C21.986755,37.3178808 20.9602649,37.1192053 19.9006623,36.986755 C18.8410596,36.8543046 17.8145695,36.7880795 16.7880795,36.7880795 C14.5695364,36.7880795 12.9470199,37.218543 11.8543046,38.1125828 C10.7615894,39.0066225 10.2317881,40.2649007 10.2317881,41.9205298 C10.2317881,43.4768212 10.6291391,44.6357616 11.4569536,45.4304636 C12.2516556,46.2582781 13.410596,46.6556291 14.9337748,46.6556291 L14.9337748,46.6556291 Z M41.5231788,50.2317881 C40.9271523,50.2317881 40.5298013,50.1324503 40.2649007,49.9006623 C40,49.7019868 39.7682119,49.2384106 39.5695364,48.6092715 L31.7880795,23.013245 C31.589404,22.3509934 31.4900662,21.9205298 31.4900662,21.6887417 C31.4900662,21.1589404 31.7549669,20.8609272 32.2847682,20.8609272 L35.5298013,20.8609272 C36.1589404,20.8609272 36.589404,20.9602649 36.8211921,21.192053 C37.0860927,21.3907285 37.2847682,21.8543046 37.4834437,22.4834437 L43.0463576,44.4039735 L48.2119205,22.4834437 C48.3774834,21.8211921 48.5761589,21.3907285 48.8410596,21.192053 C49.1059603,20.9933775 49.5695364,20.8609272 50.1655629,20.8609272 L52.8145695,20.8609272 C53.4437086,20.8609272 53.8741722,20.9602649 54.1390728,21.192053 C54.4039735,21.3907285 54.6357616,21.8543046 54.7682119,22.4834437 L60,44.6688742 L65.7284768,22.4834437 C65.9271523,21.8211921 66.1589404,21.3907285 66.3907285,21.192053 C66.6556291,20.9933775 67.0860927,20.8609272 67.6821192,20.8609272 L70.7615894,20.8609272 C71.2913907,20.8609272 71.589404,21.1258278 71.589404,21.6887417 C71.589404,21.8543046 71.5562914,22.0198675 71.5231788,22.218543 C71.4900662,22.4172185 71.4238411,22.6821192 71.2913907,23.0463576 L63.3112583,48.6423841 C63.1125828,49.3046358 62.8807947,49.7350993 62.615894,49.9337748 C62.3509934,50.1324503 61.9205298,50.2649007 61.3576159,50.2649007 L58.5099338,50.2649007 C57.8807947,50.2649007 57.4503311,50.1655629 57.1854305,49.9337748 C56.9205298,49.7019868 56.6887417,49.2715232 56.5562914,48.6092715 L51.4238411,27.2516556 L46.3245033,48.5761589 C46.1589404,49.2384106 45.9602649,49.6688742 45.6953642,49.9006623 C45.4304636,50.1324503 44.9668874,50.2317881 44.3708609,50.2317881 L41.5231788,50.2317881 L41.5231788,50.2317881 Z M84.0728477,51.1258278 C82.3509934,51.1258278 80.6291391,50.9271523 78.9735099,50.5298013 C77.3178808,50.1324503 76.0264901,49.7019868 75.1655629,49.205298 C74.6357616,48.9072848 74.2715232,48.5761589 74.1390728,48.2781457 C74.0066225,47.9801325 73.9403974,47.6490066 73.9403974,47.3509934 L73.9403974,45.6622517 C73.9403974,44.9668874 74.205298,44.6357616 74.7019868,44.6357616 C74.9006623,44.6357616 75.0993377,44.6688742 75.2980132,44.7350993 C75.4966887,44.8013245 75.794702,44.9337748 76.1258278,45.0662252 C77.2516556,45.5629139 78.4768212,45.9602649 79.7682119,46.2251656 C81.0927152,46.4900662 82.384106,46.6225166 83.7086093,46.6225166 C85.794702,46.6225166 87.4172185,46.2582781 88.5430464,45.5298013 C89.6688742,44.8013245 90.2649007,43.7417219 90.2649007,42.384106 C90.2649007,41.4569536 89.9668874,40.6953642 89.3708609,40.0662252 C88.7748344,39.4370861 87.6490066,38.8741722 86.0264901,38.3443709 L81.2251656,36.8543046 C78.807947,36.0927152 77.0198675,34.9668874 75.9271523,33.4768212 C74.8344371,32.0198675 74.2715232,30.397351 74.2715232,28.6754967 C74.2715232,27.2847682 74.5695364,26.0596026 75.1655629,25 C75.7615894,23.9403974 76.5562914,23.013245 77.5496689,22.2847682 C78.5430464,21.5231788 79.6688742,20.9602649 80.9933775,20.5629139 C82.3178808,20.1655629 83.7086093,20 85.1655629,20 C85.8940397,20 86.6556291,20.0331126 87.384106,20.1324503 C88.1456954,20.2317881 88.8410596,20.3642384 89.5364238,20.4966887 C90.1986755,20.6622517 90.8278146,20.8278146 91.4238411,21.0264901 C92.0198675,21.2251656 92.4834437,21.4238411 92.8145695,21.6225166 C93.2781457,21.8874172 93.6092715,22.1523179 93.807947,22.4503311 C94.0066225,22.7152318 94.1059603,23.0794702 94.1059603,23.5430464 L94.1059603,25.0993377 C94.1059603,25.794702 93.8410596,26.1589404 93.3443709,26.1589404 C93.0794702,26.1589404 92.6490066,26.0264901 92.0860927,25.7615894 C90.1986755,24.9006623 88.0794702,24.4701987 85.7284768,24.4701987 C83.8410596,24.4701987 82.3509934,24.7682119 81.3245033,25.397351 C80.2980132,26.0264901 79.7682119,26.986755 79.7682119,28.3443709 C79.7682119,29.2715232 80.0993377,30.0662252 80.7615894,30.6953642 C81.4238411,31.3245033 82.6490066,31.9536424 84.4039735,32.5165563 L89.1059603,34.0066225 C91.4900662,34.7682119 93.2119205,35.8278146 94.2384106,37.1854305 C95.2649007,38.5430464 95.7615894,40.0993377 95.7615894,41.8211921 C95.7615894,43.2450331 95.4635762,44.5364238 94.9006623,45.6622517 C94.3046358,46.7880795 93.5099338,47.781457 92.4834437,48.5761589 C91.4569536,49.4039735 90.2317881,50 88.807947,50.4304636 C87.3178808,50.8940397 85.7615894,51.1258278 84.0728477,51.1258278 L84.0728477,51.1258278 Z" id="Shape" fill="#252F3E" fill-rule="nonzero"></path>
        <path d="M90.3311258,67.218543 C79.4370861,75.2649007 63.6092715,79.5364238 50,79.5364238 C30.9271523,79.5364238 13.7417219,72.4834437 0.761589404,60.7615894 C-0.264900662,59.8344371 0.662251656,58.5761589 1.88741722,59.3046358 C15.9271523,67.4503311 33.2450331,72.384106 51.1589404,72.384106 C63.2450331,72.384106 76.5231788,69.8675497 88.7417219,64.7019868 C90.5629139,63.8741722 92.1192053,65.8940397 90.3311258,67.218543 Z" id="Path" fill="#FF9900" fill-rule="nonzero"></path>
        <path d="M94.8675497,62.0529801 C93.4768212,60.2649007 85.6622517,61.192053 82.1192053,61.6225166 C81.0596026,61.7549669 80.8940397,60.8278146 81.8543046,60.1324503 C88.0794702,55.7615894 98.3112583,57.0198675 99.5033113,58.4768212 C100.695364,59.9668874 99.1721854,70.1986755 93.3443709,75.0993377 C92.4503311,75.8609272 91.589404,75.4635762 91.986755,74.4701987 C93.3112583,71.192053 96.2582781,63.807947 94.8675497,62.0529801 L94.8675497,62.0529801 Z" id="Path" fill="#FF9900" fill-rule="nonzero"></path>
    </g>
</svg>