<svg width="224" height="96" viewBox="0 0 224 96" fill="none" xmlns="http://www.w3.org/2000/svg">
<path d="M33.053 73.313C31.765 73.935 28.922 74.646 25.28 74.646C15.775 74.646 10 68.694 10 59.543C10 49.682 16.885 43.73 26.035 43.73C29.633 43.73 32.164 44.485 33.275 45.063L32.12 49.416C30.699 48.794 28.7 48.261 26.257 48.261C20.172 48.261 15.775 52.081 15.775 59.277C15.775 65.896 19.595 70.071 26.213 70.071C28.39 70.071 30.699 69.627 32.165 69.005L33.053 73.313Z" fill="#0F283C"/>
<path d="M37.359 42.619H42.822V74.156H37.359V42.619Z" fill="#0F283C"/>
<path d="M69.339 63.141C69.339 71.092 63.742 74.645 58.235 74.645C52.15 74.645 47.397 70.47 47.397 63.496C47.397 56.389 52.061 52.036 58.59 52.036C65.03 52.036 69.339 56.567 69.339 63.141ZM53.037 63.363C53.037 67.538 55.124 70.692 58.412 70.692C61.521 70.692 63.698 67.672 63.698 63.275C63.698 59.899 62.188 55.99 58.457 55.99C54.592 55.989 53.037 59.765 53.037 63.363Z" fill="#0F283C"/>
<path d="M93.188 67.672C93.188 70.248 93.277 72.38 93.366 74.157H88.614L88.347 70.914H88.214C87.281 72.424 85.149 74.645 81.24 74.645C77.331 74.645 73.733 72.291 73.733 65.228V52.525H79.196V64.296C79.196 67.894 80.351 70.204 83.238 70.204C85.459 70.204 86.881 68.694 87.413 67.272C87.635 66.828 87.724 66.206 87.724 65.584V52.525H93.187V67.672H93.188Z" fill="#0F283C"/>
<path d="M119.036 42.619V68.071C119.036 70.292 119.125 72.691 119.214 74.156H114.372L114.105 70.736H114.016C112.728 73.135 110.107 74.645 106.998 74.645C101.801 74.645 97.715 70.248 97.715 63.584C97.671 56.344 102.201 52.036 107.398 52.036C110.374 52.036 112.506 53.235 113.483 54.834H113.572V42.619H119.036ZM113.573 61.542C113.573 61.098 113.529 60.521 113.44 60.076C112.951 57.988 111.219 56.256 108.732 56.256C105.223 56.256 103.269 59.365 103.269 63.363C103.269 67.361 105.224 70.248 108.688 70.248C110.909 70.248 112.863 68.738 113.396 66.383C113.529 65.895 113.574 65.362 113.574 64.784V61.542H113.573Z" fill="#0F283C"/>
<path d="M130.582 44.218V56.211H143.241V44.218H148.704V74.156H143.241V60.964H130.582V74.156H125.119V44.218H130.582Z" fill="#7C3AED"/>
<path d="M158.606 64.873C158.739 68.782 161.76 70.47 165.269 70.47C167.801 70.47 169.578 70.07 171.265 69.492L172.065 73.223C170.199 74.022 167.623 74.6 164.514 74.6C157.496 74.6 153.365 70.291 153.365 63.673C153.365 57.677 157.007 52.036 163.936 52.036C170.955 52.036 173.264 57.81 173.264 62.563C173.264 63.584 173.175 64.384 173.086 64.873H158.606ZM168.112 61.053C168.156 59.054 167.268 55.767 163.626 55.767C160.25 55.767 158.829 58.832 158.606 61.053H168.112Z" fill="#7C3AED"/>
<path d="M177.658 59.498C177.658 56.566 177.614 54.435 177.48 52.524H182.188L182.41 56.61H182.543C183.609 53.589 186.141 52.035 188.495 52.035C189.028 52.035 189.339 52.079 189.783 52.168V57.276C189.295 57.187 188.806 57.143 188.14 57.143C185.563 57.143 183.743 58.787 183.254 61.274C183.165 61.763 183.121 62.34 183.121 62.918V74.156H177.658V59.498V59.498Z" fill="#7C3AED"/>
<path d="M213.635 63.141C213.635 71.092 208.038 74.645 202.531 74.645C196.446 74.645 191.693 70.47 191.693 63.496C191.693 56.389 196.357 52.036 202.886 52.036C209.327 52.036 213.635 56.567 213.635 63.141ZM197.334 63.363C197.334 67.538 199.421 70.692 202.709 70.692C205.818 70.692 207.995 67.672 207.995 63.275C207.995 59.899 206.485 55.99 202.754 55.99C198.889 55.989 197.334 59.765 197.334 63.363Z" fill="#7C3AED"/>
<path d="M85.006 44.87L83.845 46.903L82.759 44.828L80.726 43.667L82.801 42.581L83.962 40.548L85.048 42.623L87.081 43.784L85.006 44.87Z" fill="#7C3AED"/>
<path d="M124.542 30.154L122.304 33.946L120.319 30.016L116.527 27.777L120.458 25.792L122.696 22L124.681 25.931L128.473 28.17L124.542 30.154Z" fill="#7C3AED"/>
<path d="M166.211 44.671L165.252 46.357L164.35 44.64L162.665 43.681L164.381 42.78L165.34 41.094L166.242 42.811L167.927 43.77L166.211 44.671Z" fill="#7C3AED"/>
</svg>
