<svg viewBox="0 0 177 162" fill="none" xmlns="http://www.w3.org/2000/svg">
<path d="M137.948 85.0457C138.202 83.7074 138.34 82.3284 138.34 80.9158C138.34 68.7781 128.502 58.9395 116.364 58.9395C116.031 58.9395 115.701 58.95 115.371 58.9651C113.225 46.6915 102.523 37.3594 89.6365 37.3594C79.8513 37.3594 71.3266 42.7416 66.8481 50.7029C64.1076 49.1439 60.9408 48.2482 57.5625 48.2482C47.1744 48.2482 38.7542 56.6695 38.7542 67.0565C38.7542 67.664 38.7856 68.2635 38.8425 68.856C26.3064 71.0632 16.778 82.0008 16.778 95.1701C16.778 109.932 28.7448 121.898 43.5057 121.898H135.47C145.694 121.898 153.982 113.61 153.982 103.386C153.982 94.0037 146.999 86.2574 137.948 85.0457Z" fill="#0F283C" stroke="#7C3AED" stroke-width="2.9688" stroke-miterlimit="10"/>
<path d="M33.0548 93.0336L33.1175 94.5601L31.799 93.7899L30.2725 93.8538L31.0427 92.5341L30.9788 91.0076L32.2985 91.7778L33.825 91.7151L33.0548 93.0336Z" fill="white"/>
<path d="M57.6311 58.0636L57.7263 60.344L55.7549 59.1939L53.4733 59.288L54.6245 57.3166L54.5304 55.0361L56.5019 56.1862L58.7823 56.0921L57.6311 58.0636Z" fill="white"/>
<path d="M54.4211 82.3831L54.4862 83.9479L53.1339 83.1591L51.5691 83.223L52.3579 81.8707L52.294 80.3059L53.6462 81.0959L55.2111 81.0308L54.4211 82.3831Z" fill="white"/>
<path d="M128.71 87.7769L128.781 89.4777L127.31 88.6203L125.609 88.69L126.468 87.2193L126.397 85.5186L127.868 86.3771L129.568 86.3062L128.71 87.7769Z" fill="white"/>
<path d="M159.126 125.147C140.93 111.101 114.933 102.305 86.063 102.305C57.193 102.305 31.196 111.1 13 125.147H159.126Z" fill="#CBD8DE"/>
<path d="M138.82 122.271C140.666 122.271 142.162 120.875 142.162 119.153C142.162 117.431 140.666 116.035 138.82 116.035C136.974 116.035 135.478 117.431 135.478 119.153C135.478 120.875 136.974 122.271 138.82 122.271Z" fill="#92A2AB"/>
<path d="M138.41 122.27C140.09 122.27 141.453 120.951 141.453 119.325C141.453 117.698 140.09 116.38 138.41 116.38C136.73 116.38 135.368 117.698 135.368 119.325C135.368 120.951 136.73 122.27 138.41 122.27Z" fill="#A2B4BE"/>
<path d="M91.0665 116.471C92.0366 116.471 92.823 115.738 92.823 114.833C92.823 113.929 92.0366 113.195 91.0665 113.195C90.0964 113.195 89.3099 113.929 89.3099 114.833C89.3099 115.738 90.0964 116.471 91.0665 116.471Z" fill="#92A2AB"/>
<path d="M90.8516 116.471C91.7344 116.471 92.4501 115.778 92.4501 114.924C92.4501 114.069 91.7344 113.376 90.8516 113.376C89.9687 113.376 89.2531 114.069 89.2531 114.924C89.2531 115.778 89.9687 116.471 90.8516 116.471Z" fill="#A2B4BE"/>
<path d="M61.769 110.303C63.1465 110.303 64.2632 109.261 64.2632 107.976C64.2632 106.691 63.1465 105.649 61.769 105.649C60.3915 105.649 59.2748 106.691 59.2748 107.976C59.2748 109.261 60.3915 110.303 61.769 110.303Z" fill="#92A2AB"/>
<path d="M61.4042 110.304C62.6586 110.304 63.6754 109.319 63.6754 108.105C63.6754 106.89 62.6586 105.906 61.4042 105.906C60.1499 105.906 59.1331 106.89 59.1331 108.105C59.1331 109.319 60.1499 110.304 61.4042 110.304Z" fill="#A2B4BE"/>
<path d="M114.072 117.368C115.011 117.368 115.773 116.658 115.773 115.781C115.773 114.905 115.011 114.195 114.072 114.195C113.133 114.195 112.371 114.905 112.371 115.781C112.371 116.658 113.133 117.368 114.072 117.368Z" fill="#92A2AB"/>
<path d="M113.823 117.368C114.679 117.368 115.372 116.697 115.372 115.87C115.372 115.042 114.679 114.371 113.823 114.371C112.968 114.371 112.275 115.042 112.275 115.87C112.275 116.697 112.968 117.368 113.823 117.368Z" fill="#A2B4BE"/>
<path d="M43.4789 120.987C43.6125 120.534 43.6892 120.059 43.6892 119.566C43.6892 116.6 41.1113 114.196 37.9317 114.196C34.7521 114.196 32.1742 116.6 32.1742 119.566C32.1742 120.059 32.2509 120.534 32.3845 120.987H43.4789Z" fill="#92A2AB"/>
<path d="M42.3346 120.987C42.4194 120.626 42.4682 120.25 42.4682 119.863C42.4682 117.061 40.1216 114.789 37.2266 114.789C34.3315 114.789 31.9849 117.061 31.9849 119.863C31.9849 120.25 32.0337 120.626 32.1185 120.987H42.3346Z" fill="#A2B4BE"/>
<path d="M88.9417 87.6979H81.8401C76.7785 87.6979 72.637 83.5564 72.637 78.4947V61.9449C72.637 56.8832 76.7785 52.7417 81.8401 52.7417H88.9417C94.0033 52.7417 98.1449 56.8832 98.1449 61.9449V78.4947C98.1449 83.5564 94.0033 87.6979 88.9417 87.6979Z" fill="#9BA3AA"/>
<path d="M94.9351 66.6732C95.1395 70.0108 95.0268 70.6533 94.7085 72.4923C94.5041 73.6587 94.2485 74.8819 93.9801 75.6951C91.8449 76.671 89.985 77.0671 88.7059 77.2437C87.4478 77.4203 86.408 77.4064 84.3158 77.3785C81.0641 77.3355 79.9256 77.0183 79.3947 76.8487C78.2632 76.4886 77.3942 76.0077 76.8285 75.6533C76.6159 75.0457 76.3336 74.1338 76.114 72.9883C75.7109 70.8461 75.7887 69.1849 75.8096 68.5552C75.8666 66.8022 75.7852 64.0954 75.1835 60.0735C75.3229 59.9062 75.604 59.6622 75.9862 59.337C77.2804 58.2484 78.8708 57.4921 80.5681 57.0391H80.575C84.4923 55.2361 90.9469 55.5474 94.7643 58.7642C95.1465 59.0825 95.4218 59.3648 95.5635 59.5135C95.0965 62.6177 94.949 64.9295 94.9339 66.6256V66.6732H94.9351Z" fill="white"/>
<path d="M75.5726 94.8842C76.3254 94.9737 76.3196 94.8273 76.9922 94.897C77.7322 94.9737 77.5859 95.1352 78.5919 95.3071C78.916 95.3629 79.2622 95.4024 79.6026 95.6661C79.6549 95.7067 79.8036 95.8241 79.9221 95.9983C80.4147 96.7267 79.9744 97.8582 79.6282 98.7505C79.541 98.9758 79.4435 99.1338 79.4109 99.1861C79.4109 99.1861 79.3052 99.3545 79.1809 99.4928C78.8905 99.8181 77.9065 99.7414 77.4662 99.71C76.4892 99.6415 75.5145 99.5288 74.5364 99.4672C74.1716 99.444 73.7708 99.4928 73.7684 99.25C73.7661 98.8422 73.7127 98.6366 73.8579 97.612C73.9822 96.7325 73.9172 96.5432 74.1007 95.8845C74.3342 95.0492 74.5666 94.9005 74.6769 94.8482C74.9035 94.7367 75.0603 94.8227 75.5726 94.8842Z" fill="#8B939D"/>
<path d="M95.466 59.3926C97.8835 61.0353 102.823 66.5197 103.262 66.6731C103.588 66.7858 107.553 66.8927 109.975 66.105C110.121 66.0574 110.317 65.9888 110.543 66.0539C111.308 66.2735 111.772 67.8476 111.576 68.9454C111.024 72.0228 104.979 73.0521 103.624 73.2821C102.729 73.4343 101.995 73.475 101.197 73.231C99.9758 72.8569 99.4751 72.0832 98.2018 71.011C97.5222 70.4394 96.4929 69.6715 95.0524 68.9454C94.6481 65.6926 94.9676 62.671 95.466 59.3926Z" fill="white"/>
<path d="M91.5905 97.9988C91.6137 98.4891 91.6741 99.4916 91.7089 100.225C91.8809 103.852 91.7589 101.023 91.8542 102.89C91.9041 103.884 92.0807 104.865 92.399 105.809C92.5733 106.326 92.8649 106.987 92.8649 106.987C92.8649 106.987 93.771 107.202 94.6632 107.204C95.5031 107.207 96.2536 107.132 96.8926 107.03C97.0505 105.796 97.1063 104.75 97.1237 103.961C97.1551 102.577 97.0819 101.476 96.9495 100.486C96.8298 99.5904 97.19 97.4586 97.0215 97.21C96.0584 95.7834 92.3003 97.8304 91.5905 97.9988Z" fill="white"/>
<path d="M96.379 93.9492C96.3407 93.9992 96.1711 94.12 96.0712 94.1653C95.9457 94.2222 95.8435 94.2826 95.6762 94.2629C95.4276 94.2338 95.1941 94.2071 95.1534 94.2025C94.9292 94.1781 94.7433 94.2083 94.3808 94.271C94.0718 94.3245 93.9661 94.3605 93.5398 94.4604C93.0263 94.5812 93.0855 94.5498 92.4117 94.7032C91.4824 94.9146 91.6078 94.9193 91.4951 94.9227C91.3557 94.9274 91.1942 94.9193 91.0862 95.0285C90.9758 95.14 90.9817 95.3119 90.9875 95.4304C91.0246 96.1797 91.1315 96.6572 91.1315 96.6572C91.2082 96.9987 91.2709 97.2009 91.3964 97.604C91.5091 97.9653 91.5451 98.0362 91.6159 98.1035C91.8378 98.3138 92.1759 98.2162 92.615 98.2244C93.6664 98.2441 93.1262 98.2441 94.1299 98.1186C94.1299 98.1186 95.3114 97.9699 96.5463 97.5355C96.6578 97.496 96.8751 97.417 97.0238 97.2102C97.0644 97.1544 97.198 96.9511 97.1748 96.5364C97.1248 95.6535 96.4824 94.1421 96.379 93.9492Z" fill="#8B939D"/>
<path d="M87.7614 84.9017C87.7254 85.7718 88.0112 87.3146 88.0658 87.6097C88.1099 87.8467 88.2807 88.7424 88.6408 89.9111C88.8999 90.751 89.2705 91.9325 90.0291 93.33C90.4264 94.0631 90.8167 94.6451 91.1118 95.0563C91.58 94.9506 92.2027 94.8112 92.9392 94.6497C93.4875 94.5301 94.0347 94.4046 94.5877 94.307C94.92 94.2478 95.2081 94.2489 95.5438 94.2791C95.7936 94.3024 96.0712 94.2873 96.2559 94.1165C96.4825 93.9062 96.4964 93.5356 96.4999 93.2475C96.5022 93.0512 96.486 92.8537 96.4592 92.6585C96.436 92.4819 96.3442 92.2531 96.357 92.0777C96.4 91.5142 96.4383 90.7498 96.4244 89.8437C96.4011 88.2974 96.2397 87.1531 96.0863 86.0867C95.8993 84.7902 95.7018 83.4716 95.172 81.822C94.7178 80.407 94.4913 79.6995 94.0893 79.4869C92.3758 78.5785 87.8881 81.8325 87.7614 84.9017Z" fill="white"/>
<path d="M77.7149 79.2849C77.2223 79.5253 76.9121 80.2386 76.2918 81.6664C76.0722 82.1706 75.8178 82.8339 75.4495 84.1641C75.0569 85.5826 74.8164 86.4492 74.6363 87.6783C74.3343 89.7334 74.7153 89.2803 74.5782 93.2546C74.5538 93.962 74.3296 94.8914 74.8977 94.9391C76.1001 95.039 76.8773 95.2004 77.5697 95.3457C77.9658 95.4096 78.4177 95.5095 78.9056 95.6651C79.2971 95.7906 79.6457 95.9312 79.9512 96.0717C80.438 95.4444 81.0664 94.5313 81.6357 93.3417C82.2142 92.1335 82.4919 91.1379 82.6522 90.5536C82.9333 89.5266 82.9089 89.2733 83.4364 86.5166C83.7744 84.7496 83.7837 84.86 83.7849 84.7159C83.8069 81.7163 79.4935 78.4171 77.7149 79.2849Z" fill="white"/>
<path d="M93.7663 52.1899C93.7663 56.9308 90.036 60.775 85.4356 60.775C81.4555 60.775 78.9195 57.5419 78.772 57.3432C78.3572 56.7868 77.0085 54.8304 77.1049 52.1899C77.2443 48.3759 80.3844 43.6047 85.4356 43.6047C90.0372 43.6047 93.7663 47.4489 93.7663 52.1899Z" fill="white"/>
<path d="M78.9451 57.5675C83.2074 59.5343 88.1424 59.7515 92.2177 57.1899C88.8755 60.9806 82.6161 60.8215 78.9451 57.5675Z" fill="#8B939D"/>
<path d="M110.392 65.8575C110.395 66.2048 110.696 66.3744 110.96 66.6835C111.73 67.5884 111.153 68.4818 111.786 69.0069C112.275 69.4135 113.04 69.2299 113.541 69.1103C114.242 68.943 115.175 68.476 115.142 68.0264C115.122 67.758 114.777 67.7418 114.316 67.2515C113.891 66.8008 113.722 66.3256 113.593 65.9609C113.25 64.992 113.449 64.4448 113.387 64.36C113.281 64.216 112.998 64.2833 112.664 64.36C111.708 64.5796 110.935 65.0024 110.805 65.1349C110.612 65.3277 110.388 65.5531 110.392 65.8575Z" fill="#7C3AED"/>
<path d="M115.771 67.2471C115.728 67.5584 115.473 67.8338 115.29 68.0742C115.195 68.2009 115.084 68.2961 114.949 68.4111C114.888 68.4634 114.81 68.4936 114.731 68.5192C114.406 68.6179 114.052 68.4843 113.762 68.3287C112.985 67.9116 112.606 66.2585 112.945 64.3277C113.065 64.2499 113.471 64.1778 113.812 64.15C113.918 64.143 114.279 64.129 114.653 64.3335C115.134 64.5949 115.324 65.041 115.445 65.3163C115.544 65.5429 115.58 65.7903 115.665 66.2922C115.714 66.6105 115.819 66.9288 115.771 67.2471Z" fill="#7C3AED"/>
<path d="M77.3373 75.9447C77.4825 77.0576 77.6277 78.1717 77.7729 79.2847C78.1551 79.51 78.6454 79.8179 79.196 80.214C79.6003 80.5045 79.7525 80.6381 81.8099 82.4794C82.6928 83.2694 83.2284 83.7596 83.6106 84.6286C83.664 84.7494 83.7024 84.8505 83.7267 84.919C84.9953 84.9573 86.2639 84.9968 87.5314 85.0352C87.7324 84.6576 88.0414 84.1418 88.4898 83.583C88.8662 83.1137 89.1833 82.8105 89.6515 82.3632C90.2521 81.7893 90.6634 81.3955 91.307 80.9401C91.5486 80.7682 92.1934 80.3256 93.1076 79.8946C93.5131 79.7029 93.8721 79.5611 94.1532 79.4589C93.9696 78.1717 93.7849 76.8834 93.6014 75.5962C88.1808 75.7124 82.759 75.8285 77.3373 75.9447Z" fill="white"/>
<path d="M77.889 79.4009C78.1888 79.5565 78.6616 79.8214 79.196 80.2141C80.1939 80.946 80.2833 81.0621 81.5194 82.1019C82.2571 82.7234 82.4511 83.0208 82.8554 83.4959C83.3166 84.0385 83.5931 84.5717 83.7557 84.9481" fill="#8B939D"/>
<path d="M87.6196 85.0075C87.7509 84.6938 87.9751 84.2291 88.3457 83.7296C88.6512 83.3183 88.9893 83.0046 89.6526 82.3936C90.2997 81.7988 90.6227 81.5014 91.1048 81.1447C91.9215 80.5406 92.5918 80.1991 92.7312 80.1282C93.2726 79.8552 93.7558 79.6705 94.1253 79.5474" fill="#8B939D"/>
<path d="M79.993 92.641C80.4217 91.3863 81.8053 90.4651 82.3664 89.2604C82.7265 88.4855 82.888 87.8861 82.9182 87.8954C83.0111 87.9244 82.7602 88.8619 82.7439 88.9316C82.5046 89.9237 82.3524 90.9263 82.0132 91.8917C81.6775 92.8455 81.2488 93.7679 80.7342 94.638C80.6703 94.746 80.5959 94.8611 80.4786 94.9075C80.2799 94.9842 80.1545 94.7658 80.0952 94.6101C79.8605 93.9932 79.7769 93.2741 79.993 92.641Z" fill="#8B939D"/>
<path d="M75.1417 95.2421C75.5216 95.2944 75.5785 95.3838 76.7727 95.579C77.5081 95.6998 77.7521 95.6591 78.3771 95.8381C78.9951 96.0146 79.339 96.118 79.5342 96.434C79.7479 96.779 79.6608 97.1764 79.5342 97.7549C79.4447 98.1615 79.3134 98.6181 79.0869 98.9712C78.9335 99.2094 78.3271 99.1315 78.0739 99.1455C77.5964 99.171 77.1189 99.1827 76.6415 99.1803C75.7562 99.1768 74.9372 99.1269 74.1949 99.0502C74.1891 96.1924 74.6445 95.1724 75.1417 95.2421Z" fill="white"/>
<path d="M73.8521 99.3848C74.9638 99.4951 76.2011 99.5497 77.5405 99.5009C78.1365 99.4789 78.7092 99.4394 79.2541 99.3848C79.2215 99.9587 79.1623 100.689 79.0508 101.534C78.9857 102.029 78.801 103.331 78.3828 104.99C78.1318 105.985 77.7148 107.863 77.235 109.135C76.962 109.19 75.1393 109.086 74.5956 109.068C74.0333 109.049 73.4187 108.991 72.3616 109C72.5939 107.781 72.6323 106.123 72.8646 104.903C73.1934 103.064 73.5221 101.224 73.8521 99.3848Z" fill="white"/>
<path d="M96.0968 94.6438C96.0514 94.6218 95.9968 94.6171 95.9306 94.6194C95.8075 94.6241 95.6843 94.6322 95.5612 94.6403C95.3242 94.6566 95.0826 94.6531 94.8467 94.6752C94.0382 94.7519 94.0091 94.8309 93.0263 94.9703C91.9192 95.1259 91.6299 95.0713 91.4522 95.3246C91.2686 95.5848 91.3999 96.0751 91.458 96.3527C91.5091 96.6002 91.5788 96.8441 91.6625 97.0823C91.7264 97.2624 91.8065 97.6655 92.0238 97.7201C92.9799 97.9617 93.9627 97.8049 94.9083 97.5946C95.8435 97.3867 96.3117 97.2821 96.5126 97.0347C96.7915 96.6908 96.7787 96.2377 96.6695 95.8369C96.5661 95.4535 96.4081 95.0806 96.1955 94.7414C96.1665 94.6915 96.1339 94.6613 96.0968 94.6438Z" fill="white"/>
<path d="M85.5436 58.0218C89.6448 58.0218 92.9694 55.573 92.9694 52.5524C92.9694 49.5317 89.6448 47.083 85.5436 47.083C81.4425 47.083 78.1179 49.5317 78.1179 52.5524C78.1179 55.573 81.4425 58.0218 85.5436 58.0218Z" fill="#231F20"/>
<path d="M97.6012 111.908C97.3108 112.02 96.9228 112.142 96.4558 112.235C96.2083 112.29 95.4021 112.449 93.8686 112.374C92.5605 112.3 91.91 112.262 91.8321 111.908C91.7334 111.479 92.5466 111.19 92.8219 109.941C92.9497 109.392 92.9346 108.795 92.9206 108.366V108.217C92.9206 108.189 92.9207 108.162 92.9137 108.115C92.9137 107.724 92.9137 107.258 92.8928 106.987C94.2288 107.034 95.5299 107.006 96.8728 107.043C96.7311 107.602 96.6753 108.078 96.6684 108.479C96.6405 109.159 96.7601 109.607 96.9019 109.811C97.1145 110.138 97.4246 110.203 97.6012 110.669C97.7569 111.107 97.6791 111.591 97.6012 111.908Z" fill="#7C3AED"/>
<path d="M92.8927 106.986C92.9136 107.191 92.9136 107.545 92.9136 107.841C92.9066 107.685 92.8857 107.403 92.8636 106.986H92.8927Z" fill="#D8472E"/>
<path d="M96.9006 107.029C96.8298 107.389 96.738 107.757 96.6671 108.118C96.6741 107.813 96.731 107.453 96.8716 107.029H96.9006Z" fill="#D8472E"/>
<path d="M77.5429 111.963C77.4999 112.098 77.4511 112.21 77.4082 112.281C75.7957 112.309 74.1774 112.345 72.5371 112.387C71.1581 112.422 69.7803 112.465 68.4153 112.515C67.9483 112.529 67.4824 112.543 67.0084 112.565C66.9376 112.487 66.804 112.324 66.8179 112.127C66.8388 111.886 67.0723 111.731 67.2628 111.618C67.9483 111.229 68.521 111.201 69.3981 110.96C70.1056 110.77 70.1613 110.678 70.9745 110.479C71.3916 110.381 71.7378 110.317 71.9643 110.282C72.0073 110.162 72.3105 109.15 72.3605 109.01V109.003C72.4453 108.572 72.4662 108.013 72.551 107.582C74.2262 107.681 75.9653 107.795 77.6347 107.9C77.5359 108.345 77.4151 108.741 77.2385 109.138H77.2316C77.3094 109.257 77.4012 109.972 77.479 110.191C77.5987 110.537 77.6138 110.821 77.6277 111.018C77.6428 111.291 77.6568 111.596 77.5429 111.963Z" fill="#7C3AED"/>
<path d="M95.5647 59.4531C95.2685 60.9483 95.157 62.1716 95.1093 63.0103C95.0861 63.4239 95.071 63.8677 95.0675 66.8161C95.0664 67.7176 95.0664 68.4623 95.0675 68.9665" fill="#8B939D"/>
<path d="M86.4719 47.9928C87.1144 47.9858 87.7672 48.0427 87.8822 48.0694C89.2089 48.375 90.6878 48.9593 91.5696 50.0386C92.2259 50.8413 92.449 51.6963 92.5349 52.1854C90.2452 50.6461 88.4166 48.813 85.5635 48.49C84.4482 48.3622 86.1315 47.9963 86.4719 47.9928Z" fill="white"/>
<path d="M75.3787 59.9038C74.663 60.3418 69.814 65.8576 68.6976 67.1878C67.9332 68.0974 67.4116 68.7213 66.7947 69.5868C65.8444 70.9204 65.3693 71.6 65.3879 72.2343C65.3971 72.5642 65.5005 73.0568 67.1246 74.6751C68.7104 76.2539 69.9499 77.4876 71.9225 78.3972C72.4546 78.6424 72.9971 78.8643 73.5373 79.0908C74.0078 79.2883 74.4597 79.5241 74.9686 79.2941C75.1115 79.2302 75.3624 79.0676 75.3531 79.3011C75.3473 79.4428 74.9767 82.0265 75.2497 82.1252C75.6064 82.2542 76.0513 82.0741 76.3406 81.8627C76.7785 81.5432 76.9795 80.9344 77.2304 80.4744C77.4314 80.1073 77.6254 79.7228 77.8787 79.3882C78.3933 78.7098 78.6617 78.69 78.664 78.3543C78.6652 78.1963 78.6094 77.8175 77.134 76.8243C76.4846 76.3875 76.1071 76.1993 75.769 75.9971C75.2915 75.7113 73.0784 74.387 72.874 72.4818C72.7915 71.7127 73.0645 71.1121 73.2876 70.6207C74.1263 68.7735 75.4983 68.7828 76.0838 67.3121C76.2755 66.83 76.1582 65.6357 76.2383 64.0244C76.3347 62.0971 76.0222 60.4823 75.3787 59.9038Z" fill="white"/>
<path d="M74.6548 79.682C74.6781 79.5007 74.8163 79.3939 74.9778 79.2196C75.0881 79.1011 75.2717 78.7654 75.6899 78.0161C76.0535 77.3667 76.2475 77.046 76.3393 76.8369C76.5229 76.4245 76.5519 76.2421 76.6937 76.2096C76.8493 76.1829 76.9504 76.3594 77.5103 77.0553C77.7136 77.3155 77.8124 77.4364 78.0145 77.7349C78.2585 78.1009 78.3282 78.2461 78.3874 78.4099C78.4432 78.5679 78.5117 78.7596 78.4734 78.9176C78.4432 79.0395 78.3781 79.0558 78.1725 79.2428C78.1725 79.2417 77.9878 79.4136 77.8066 79.6378C77.7473 79.7145 77.6556 79.8237 77.2989 80.5835C77.1305 80.9436 77.0247 81.1701 76.883 81.5059C76.7285 81.8706 76.6472 82.0972 76.4485 82.5131C76.301 82.8209 76.2301 82.9359 76.1314 83.0533C76.0559 83.1404 75.9025 83.3007 75.6771 83.3809C75.3925 83.4808 75.1637 83.3809 75.1033 83.3518C74.8895 83.2508 74.7815 83.1648 74.7059 83.0184C74.584 82.778 74.649 82.5433 74.6583 82.3853C74.6781 82.0739 74.6874 81.7498 74.7118 81.4304C74.7373 81.0969 74.8059 80.7659 74.8105 80.4057C74.8128 80.271 74.8082 80.1281 74.7512 80.0131C74.7025 79.9073 74.6386 79.8074 74.6548 79.682Z" fill="#7C3AED"/>
<path d="M75.4785 59.7935C75.7748 61.2886 75.7469 60.9982 75.7945 61.8369C75.8177 62.2505 75.8328 62.6943 75.8363 65.6427C75.8375 66.5442 75.8375 67.1472 75.8363 67.6525" fill="#8B939D"/>
<path d="M87.579 73.9617H84.2286C82.2189 73.9617 80.5739 72.3167 80.5739 70.307V68.9141C80.5739 66.9043 82.2189 65.2593 84.2286 65.2593H87.579C89.5888 65.2593 91.2338 66.9043 91.2338 68.9141V70.307C91.2338 72.3179 89.59 73.9617 87.579 73.9617Z" fill="#8B939D" stroke="#8B939D" stroke-width="0.8067" stroke-miterlimit="10"/>
<path d="M87.1074 73.5574H83.7569C81.7472 73.5574 80.1022 71.9124 80.1022 69.9027V68.5098C80.1022 66.5 81.7472 64.855 83.7569 64.855H87.1074C89.1171 64.855 90.7621 66.5 90.7621 68.5098V69.9027C90.7621 71.9124 89.1171 73.5574 87.1074 73.5574Z" fill="#DBE1EA"/>
<path d="M77.3373 75.9447C82.8253 76.0946 88.1866 77.4317 93.6281 75.875C88.6153 78.6585 82.5615 77.448 77.3373 75.9447Z" fill="#8B939D"/>
<path d="M137.948 85.0457C138.202 83.7074 138.34 82.3284 138.34 80.9158C138.34 68.7781 128.502 58.9395 116.364 58.9395C116.031 58.9395 115.701 58.95 115.371 58.9651C113.225 46.6915 102.523 37.3594 89.6365 37.3594C79.8513 37.3594 71.3266 42.7416 66.8481 50.7029C64.1076 49.1439 60.9408 48.2482 57.5625 48.2482C47.1744 48.2482 38.7542 56.6695 38.7542 67.0565C38.7542 67.664 38.7856 68.2635 38.8425 68.856C26.3064 71.0632 16.778 82.0008 16.778 95.1701C16.778 109.932 28.7448 121.898 43.5057 121.898H135.47C145.694 121.898 153.982 113.61 153.982 103.386C153.982 94.0037 146.999 86.2574 137.948 85.0457Z" stroke="#7C3AED" stroke-width="2.9688" stroke-miterlimit="10"/>
<path d="M114.579 36.4067H113.434V116.54H114.579V36.4067Z" fill="#95573E"/>
<path d="M113.849 37.2305C113.899 46.4569 113.95 55.6844 114.001 64.9108C117.829 64.711 121.631 64.9363 125.426 64.6947C129.907 64.4101 134.406 64.2103 138.895 64.46C146.834 64.9015 154.665 66.737 162.615 66.8857C163.494 62.2249 162.61 56.7427 162.49 52.0378C162.36 46.9494 162.351 41.8448 162.43 36.7844C159.596 36.5276 156.327 37.3861 153.432 37.5C150.231 37.6254 147.024 37.5894 143.825 37.45C131.966 36.9331 126.521 35.9677 127.078 36.0292C125.874 35.8968 113.843 36.2 113.849 37.2305Z" fill="#231F20"/>
<path d="M113.578 37.528C113.628 46.6324 113.679 55.7379 113.729 64.8423C117.543 64.6449 121.332 64.8667 125.112 64.6298C129.579 64.3486 134.06 64.1511 138.532 64.3974C146.442 64.8331 154.246 66.6442 162.166 66.7906C163.042 62.1913 162.162 56.7823 162.042 52.1378C161.913 47.1168 161.904 42.0796 161.983 37.0865C159.16 36.8333 155.902 37.6801 153.018 37.7917C149.828 37.916 146.633 37.88 143.444 37.7417C137.864 37.5001 132.306 36.9401 126.757 36.3395C125.56 36.2117 113.573 36.5115 113.578 37.528Z" fill="#DBE1EA" stroke="#7C3AED" stroke-width="0.5" stroke-miterlimit="10"/>
<path d="M133.351 48.4585H129.55L137.069 61.0643L141.743 53.3621H139.423V50.9934L137.119 54.712L133.351 48.4585Z" fill="#7C3AED"/>
<path d="M143.338 49.446H139.998V52.786H143.338V49.446Z" fill="#7C3AED"/>
<path d="M139.621 44.7236H136.839V47.5048H139.621V44.7236Z" fill="#7C3AED"/>
<path d="M143.487 42.8811H141.249V45.1186H143.487V42.8811Z" fill="#7C3AED"/>
<path d="M143.257 46.4348H141.348V48.3435H143.257V46.4348Z" fill="#7C3AED"/>
<path d="M146.582 45.6787H144.903V47.3574H146.582V45.6787Z" fill="#7C3AED"/>
<path d="M146.137 42.0413H144.426V43.7525H146.137V42.0413Z" fill="#7C3AED"/>
<path d="M111.886 65.7599C112.036 65.6263 112.374 65.2848 112.83 65.3859C113.453 65.5241 113.994 65.976 114.224 66.5731C114.296 66.7613 114.531 67.3701 114.224 67.7604C113.889 68.1879 113.093 68.1182 112.623 67.8638C111.933 67.4897 111.677 66.8368 111.886 65.7599Z" fill="#7C3AED"/>
</svg>
