<svg viewBox="0 0 177 162" fill="none" xmlns="http://www.w3.org/2000/svg">
<path d="M88.439 145.698C117.953 145.698 141.878 122.524 141.878 93.9367C141.878 65.3498 117.953 42.1755 88.439 42.1755C58.9255 42.1755 35 65.3498 35 93.9367C35 122.524 58.9255 145.698 88.439 145.698Z" fill="#4C4C4C" stroke="#4C4C4C" stroke-width="4" stroke-miterlimit="10"/>
<path d="M40.519 115.419C40.751 112.54 42.823 108.81 46.435 108.122C49.798 107.482 53.509 109.665 54.243 112.245C54.992 114.881 54.919 116.402 54.75 115.703C54.252 113.642 58.367 110.652 60.855 109.961C65.228 108.747 70.693 113.668 71.64 116.787C72.673 120.191 69.688 125.077 67.498 126.103C66.758 126.45 70.599 123.396 73.547 123.861C76.001 124.248 77.838 127.058 78.305 129.464C78.818 132.109 77.667 134.232 77.166 135.157C75.799 137.678 73.323 139.767 70.897 140.508C65.394 142.189 59.735 137.056 49.234 127.534C41.319 120.355 40.328 117.788 40.519 115.419Z" fill="white"/>
<path d="M67.26 141.844C65.472 139.447 64.556 135.193 66.937 132.317C69.154 129.638 73.579 128.937 75.925 130.474C78.32 132.046 79.304 133.28 78.692 132.844C76.888 131.558 78.091 126.559 79.583 124.408C82.205 120.627 89.889 120.925 92.771 122.745C95.916 124.731 96.904 130.477 95.876 132.697C95.529 133.447 96.472 128.576 99.118 127.028C101.321 125.741 104.695 126.742 106.71 128.317C108.926 130.049 109.47 132.45 109.707 133.496C110.353 136.35 109.828 139.584 108.419 141.734C105.224 146.611 97.242 146.273 82.433 145.648C71.27 145.177 68.73 143.816 67.26 141.844Z" fill="white"/>
<path d="M134.303 120.088C134.077 117.288 132.029 113.663 128.45 112.998C125.118 112.379 121.438 114.507 120.708 117.018C119.962 119.581 120.033 121.061 120.201 120.382C120.698 118.377 116.624 115.474 114.159 114.805C109.827 113.629 104.405 118.422 103.463 121.457C102.435 124.767 105.386 129.516 107.555 130.511C108.288 130.847 104.486 127.881 101.564 128.339C99.132 128.718 97.308 131.453 96.842 133.794C96.33 136.367 97.468 138.43 97.963 139.328C99.315 141.779 100.9 141.595 103.303 142.313C108.754 143.94 115.233 141.155 125.65 131.882C133.504 124.889 134.489 122.391 134.303 120.088Z" fill="white"/>
<path d="M88.439 145.698C117.953 145.698 141.878 122.524 141.878 93.9367C141.878 65.3498 117.953 42.1755 88.439 42.1755C58.9255 42.1755 35 65.3498 35 93.9367C35 122.524 58.9255 145.698 88.439 145.698Z" stroke="#585858" stroke-width="4" stroke-miterlimit="10"/>
<path d="M63.95 74.6315L63.988 75.9566L65.119 75.2108L66.487 75.1749L65.717 74.0785L65.68 72.7534L64.548 73.4992L63.181 73.5351L63.95 74.6315Z" fill="white"/>
<path d="M48.945 98.9957L48.969 99.8471L49.696 99.3686L50.574 99.3444L50.08 98.6412L50.056 97.7908L49.329 98.2693L48.451 98.2925L48.945 98.9957Z" fill="white"/>
<path d="M47.518 82.3813L47.588 84.8367L49.685 83.4555L52.221 83.3877L50.794 81.3565L50.725 78.9001L48.627 80.2823L46.092 80.3492L47.518 82.3813Z" fill="white"/>
<path d="M112.176 74.6315L112.138 75.9566L111.007 75.2108L109.639 75.1749L110.408 74.0785L110.446 72.7534L111.577 73.4992L112.945 73.5351L112.176 74.6315Z" fill="white"/>
<path d="M127.18 98.9957L127.156 99.8471L126.43 99.3686L125.552 99.3444L126.046 98.6412L126.07 97.7908L126.796 98.2693L127.675 98.2925L127.18 98.9957Z" fill="white"/>
<path d="M128.608 82.3813L128.538 84.8367L126.441 83.4555L123.905 83.3877L125.332 81.3565L125.401 78.9001L127.498 80.2823L130.034 80.3492L128.608 82.3813Z" fill="white"/>
<path d="M76.632 90.5341C74.977 91.6935 72.348 93.8438 70.194 97.2949C69.757 97.9952 67.586 101.559 66.895 106.803C66.203 112.057 67.347 116.341 68.218 118.762C68.749 117.36 69.638 115.45 71.142 113.441C72.82 111.198 74.519 109.829 75.864 108.759C77.14 107.744 78.949 106.466 81.308 105.263C79.75 100.353 78.191 95.4439 76.632 90.5341Z" fill="#585858"/>
<path d="M100.245 90.8925C101.9 92.0519 104.529 94.2022 106.683 97.6533C107.12 98.3536 109.291 101.917 109.982 107.161C110.674 112.416 109.53 116.699 108.659 119.12C108.128 117.719 107.239 115.809 105.735 113.799C104.057 111.557 102.358 110.187 101.013 109.118C99.737 108.103 97.928 106.824 95.569 105.621C97.127 100.711 98.686 95.8013 100.245 90.8925Z" fill="#444444"/>
<path d="M99.29 122.585C99.131 119.807 99.051 118.419 98.445 116.673C97.679 114.466 96.555 112.912 95.909 112.033C94.919 110.686 93.808 109.052 92.978 108.229H81.827C80.886 109.138 79.657 110.63 78.628 112.579C76.551 116.516 76.729 120.241 76.844 122.131C77 124.704 77.616 126.704 78.534 129.681C79.112 131.555 79.697 133.081 80.131 134.139C81.531 128.124 82.162 126.911 82.479 126.953C82.893 127.007 82.706 129.201 83.418 134.139C83.418 134.139 83.771 136.582 85.015 140.233C85.71 142.272 86.109 142.943 86.705 143.053C87.825 143.258 89.052 141.373 89.616 140.505C90.275 139.492 91.413 137.438 92.152 132.773C92.639 129.701 92.56 127.973 93.185 127.861C93.769 127.757 94.545 129.137 95.157 130.226C95.842 131.444 95.973 132.136 96.847 133.683C97.475 134.795 97.789 135.351 98.068 135.32C98.789 135.243 98.989 132.139 99.195 128.953C99.323 126.987 99.436 125.135 99.29 122.585Z" fill="#939393"/>
<path d="M95.306 117.487C95.203 115.695 95.152 114.8 94.761 113.674C94.267 112.251 93.542 111.249 93.126 110.682C92.487 109.813 91.771 108.759 91.236 108.228H84.044C83.437 108.814 82.645 109.776 81.981 111.034C80.641 113.572 80.756 115.974 80.83 117.194C80.931 118.854 81.328 120.143 81.92 122.063C82.293 123.272 82.67 124.256 82.95 124.938C83.853 121.059 84.26 120.276 84.464 120.303C84.731 120.338 84.61 121.753 85.07 124.938C85.07 124.938 85.297 126.514 86.1 128.868C86.548 130.184 86.806 130.617 87.19 130.688C87.912 130.82 88.703 129.605 89.068 129.045C89.493 128.392 90.227 127.066 90.703 124.057C91.017 122.076 90.966 120.962 91.369 120.889C91.746 120.821 92.246 121.711 92.641 122.415C93.083 123.2 93.167 123.646 93.731 124.644C94.136 125.361 94.338 125.72 94.518 125.7C94.983 125.65 95.112 123.649 95.245 121.593C95.328 120.327 95.401 119.132 95.306 117.487Z" fill="#B7B7B7"/>
<path d="M92.405 113.776C92.343 112.702 92.313 112.166 92.078 111.491C91.782 110.638 91.348 110.038 91.098 109.698C90.715 109.177 90.286 108.546 89.966 108.228H85.658C85.294 108.579 84.82 109.155 84.422 109.909C83.619 111.43 83.688 112.869 83.733 113.599C83.793 114.594 84.031 115.366 84.386 116.517C84.609 117.24 84.835 117.83 85.003 118.239C85.544 115.915 85.788 115.447 85.91 115.462C86.07 115.483 85.998 116.331 86.273 118.239C86.273 118.239 86.409 119.183 86.89 120.594C87.158 121.381 87.313 121.641 87.543 121.683C87.976 121.763 88.45 121.034 88.668 120.699C88.923 120.308 89.362 119.514 89.648 117.712C89.836 116.526 89.806 115.857 90.047 115.815C90.273 115.774 90.572 116.308 90.809 116.728C91.073 117.199 91.124 117.465 91.462 118.064C91.705 118.493 91.826 118.708 91.934 118.696C92.212 118.666 92.29 117.467 92.369 116.236C92.418 115.477 92.462 114.761 92.405 113.776Z" fill="#D1D1D1"/>
<path d="M86.959 108.229C86.983 108.459 87.002 108.894 87.1 109.57C87.1 109.57 87.176 110.094 87.443 110.878C87.592 111.315 87.678 111.459 87.806 111.483C88.046 111.528 88.309 111.123 88.431 110.937C88.572 110.72 88.816 110.279 88.975 109.278C89.076 108.641 89.064 108.274 89.184 108.229H86.959V108.229Z" fill="#F3F3F3"/>
<path d="M81.2099 104.289V109.136H94.5859V104.289H81.2099Z" fill="#616161"/>
<path d="M87.382 16.4872C83.972 21.1733 78.966 29.2263 75.644 40.6664C72.498 51.5003 72.308 60.394 72.232 65.6709C71.984 82.7852 75.809 96.8919 79.33 106.355C81.051 105.444 84.186 104.101 88.243 104.127C92.263 104.154 95.362 105.511 97.073 106.437C103.028 89.0317 103.715 74.2692 103.555 65.6709C103.441 59.5145 103.223 50.985 100.075 40.6664C96.502 28.9579 90.993 20.9631 87.382 16.4872Z" fill="#9F9F9F"/>
<path d="M87.898 85.4092C87.898 85.4092 90.628 92.8965 90.628 102.132C90.628 111.368 87.898 118.855 87.898 118.855C87.898 118.855 85.168 111.368 85.168 102.132C85.168 92.8965 87.898 85.4092 87.898 85.4092Z" fill="#585858"/>
<path d="M87.898 85.4092V118.856C88.348 117.537 90.627 110.519 90.627 102.047C90.627 93.5735 88.348 86.7284 87.898 85.4092Z" fill="#444444"/>
<path d="M87.986 37.7219C94.248 37.7044 99.21 38.8416 99.935 40.155C96.368 28.5405 91.102 20.4662 87.515 16.0126C84.112 20.6987 79.115 28.7516 75.799 40.1918H75.812C76.313 38.8271 81.565 37.7403 87.986 37.7219Z" fill="#585858"/>
<path d="M103.619 65.6912C103.505 59.5348 103.287 51.0053 100.139 40.6867C97.112 30.7653 92.697 23.5192 89.225 18.8167C91.345 22.8112 93.364 27.4246 94.995 32.6803C98.729 44.7103 98.729 54.4516 98.698 61.4507C98.657 70.6989 97.517 86.1404 90.732 104.338C93.572 104.741 95.79 105.728 97.137 106.457C103.092 89.051 103.779 74.2885 103.619 65.6912Z" fill="#6B6B6B"/>
<path d="M87.53 16C87.481 16.0678 87.428 16.1434 87.378 16.2121C90.138 20.8779 92.863 26.5694 94.953 33.3031C95.506 35.0863 96.182 36.8802 96.584 38.5655C98.517 39.0043 99.616 39.5206 99.959 40.1424C96.392 28.5279 91.117 20.4536 87.53 16Z" fill="#444444"/>
<path d="M88.393 65.7068C92.2711 65.7068 95.415 62.6617 95.415 58.9053C95.415 55.1489 92.2711 52.1038 88.393 52.1038C84.5149 52.1038 81.371 55.1489 81.371 58.9053C81.371 62.6617 84.5149 65.7068 88.393 65.7068Z" fill="#BDBDBD" stroke="#585858" stroke-width="2.367" stroke-miterlimit="10"/>
<path d="M85.063 27.3452H82.959L87.121 34.1032L89.708 29.975H88.424V28.7042L87.148 30.6985L85.063 27.3452Z" fill="white"/>
<path d="M90.591 27.8751H88.742V29.6661H90.591V27.8751Z" fill="white"/>
<path d="M88.533 25.3431H86.994V26.8338H88.533V25.3431Z" fill="white"/>
<path d="M90.674 24.3552H89.435V25.5553H90.674V24.3552Z" fill="white"/>
<path d="M90.546 26.2604H89.489V27.2842H90.546V26.2604Z" fill="white"/>
<path d="M92.386 25.8546H91.457V26.7544H92.386V25.8546Z" fill="white"/>
<path d="M92.131 23.9058H91.184V24.823H92.131V23.9058Z" fill="white"/>
<path opacity="0.4" d="M92.386 25.8517V26.2072L92.237 25.8556L92.386 25.8517Z" fill="#0E0E0E"/>
<path opacity="0.4" d="M91.383 23.9038L92.131 23.9057V24.823H91.797L91.383 23.9038Z" fill="#0E0E0E"/>
<rect x="116" y="120.619" width="14" height="14.0952" fill="white"/>
<path d="M123 131.19C124.925 131.19 126.5 129.605 126.5 127.667C126.5 125.711 124.925 124.143 123 124.143C121.075 124.143 119.5 125.729 119.5 127.667C119.5 129.605 121.075 131.19 123 131.19ZM133.5 115.333C135.425 115.333 137 116.919 137 118.857V136.476C137 138.414 135.425 140 133.5 140H112.5C110.575 140 109 138.414 109 136.476V118.857C109 116.901 110.575 115.333 112.5 115.333H114.25V111.81C114.25 106.947 118.17 103 123 103C127.83 103 131.75 106.947 131.75 111.81V115.333H133.5ZM123 106.524C120.095 106.524 117.75 108.885 117.75 111.81V115.333H128.25V111.81C128.25 108.885 125.905 106.524 123 106.524Z" fill="#7C3AED"/>
</svg>
