<svg viewBox="0 0 177 162" fill="none" xmlns="http://www.w3.org/2000/svg">
<path d="M84.439 136.75C113.953 136.75 137.878 112.825 137.878 83.3113C137.878 53.7978 113.953 29.8723 84.439 29.8723C54.9255 29.8723 31 53.7978 31 83.3113C31 112.825 54.9255 136.75 84.439 136.75Z" fill="#4C4C4C" stroke="#616161" stroke-width="4" stroke-miterlimit="10"/>
<path d="M124.949 105.634C124.891 105.5 124.566 104.785 123.781 104.517C123.092 104.282 122.498 104.545 122.189 104.682C121.958 104.784 120.111 105.348 120.612 106.486C121.087 107.566 120.673 108.372 121.254 108.982C121.858 109.616 122.617 109.729 123.222 109.818C123.497 109.859 124.242 109.941 125.112 109.659C125.625 109.493 125.882 109.169 125.954 108.769C126.033 108.333 125.748 108.216 125.308 107.429C124.941 106.773 124.917 106.091 124.949 105.634Z" fill="#959595"/>
<path d="M125.746 105.81C125.778 106.123 125.629 106.545 125.657 106.855C125.688 107.207 126.053 107.336 126.216 107.649C126.504 108.202 126.247 109.345 125.472 109.642C125.444 109.653 125.424 109.66 125.409 109.665C125.149 109.756 124.202 109.886 123.857 109.86C124.045 109.873 125.273 109.276 125.326 108.736C125.382 108.172 124.81 107.497 124.686 106.944C124.611 106.608 124.805 106.22 124.668 105.883C124.601 105.718 124.4 105.514 124.332 105.36C124.209 105.083 123.789 104.568 123.477 104.445C123.889 104.467 124.34 104.591 124.695 104.8C125.128 105.054 125.702 105.379 125.746 105.81Z" fill="#4C4C4C"/>
<path d="M55.492 47.5252C55.447 47.4282 55.198 46.9142 54.637 46.7022C54.145 46.5162 53.734 46.6852 53.521 46.7732C53.362 46.8382 52.077 47.1832 52.462 48.0022C52.827 48.7782 52.56 49.3362 52.986 49.7842C53.43 50.2502 53.968 50.3512 54.396 50.4312C54.591 50.4682 55.118 50.5482 55.722 50.3732C56.078 50.2702 56.25 50.0492 56.29 49.7682C56.333 49.4622 56.129 49.3722 55.796 48.8032C55.52 48.3302 55.483 47.8472 55.492 47.5252Z" fill="#959595"/>
<path d="M56.059 47.6723C56.09 47.8943 55.998 48.1883 56.026 48.4083C56.058 48.6573 56.319 48.7593 56.442 48.9853C56.661 49.3843 56.513 50.1843 55.976 50.3723C55.957 50.3793 55.943 50.3833 55.933 50.3873C55.753 50.4443 55.089 50.5083 54.846 50.4803C54.978 50.4953 55.826 50.1083 55.848 49.7283C55.871 49.3313 55.449 48.8383 55.346 48.4433C55.283 48.2043 55.409 47.9353 55.303 47.6933C55.251 47.5753 55.104 47.4243 55.051 47.3143C54.956 47.1153 54.646 46.7393 54.423 46.6433C54.714 46.6703 55.035 46.7713 55.291 46.9293C55.602 47.1203 56.016 47.3663 56.059 47.6723Z" fill="#4C4C4C"/>
<path d="M67.877 38.4102C67.357 38.4602 67 38.7202 66.794 38.8742C66.326 39.2242 66.368 39.4232 65.75 40.0732C65.25 40.5982 65.181 40.5122 64.938 40.8462C64.874 40.9342 64.22 41.8582 64.513 42.5472C64.736 43.0722 65.4 43.2042 66.369 43.3982C66.369 43.3982 67.834 43.6902 70.352 43.0892C70.486 43.0572 70.782 42.9822 71.048 42.7412C71.151 42.6482 71.34 42.4772 71.396 42.2002C71.473 41.8192 71.246 41.5022 71.164 41.3882C70.978 41.1292 70.814 41.0882 70.545 40.8852C70.172 40.6042 69.974 40.2852 69.578 39.6482C69.157 38.9692 69.181 38.7952 68.882 38.6042C68.488 38.3512 68.04 38.3952 67.877 38.4102Z" fill="#959595"/>
<path d="M67.311 38.5723C67.536 38.5903 68.041 38.7553 68.314 39.0553C68.391 39.1403 68.441 39.2243 68.585 39.5963C68.854 40.2943 68.989 40.6433 69.01 40.9493C69.049 41.5063 69.422 42.1263 69.706 42.5343C69.912 42.8293 69.876 42.9973 70.054 43.0753C70.276 43.1723 70.566 43.0353 70.786 42.9423C71.041 42.8343 71.309 42.5833 71.411 42.2043C71.425 42.1523 71.489 41.7133 71.253 41.4123C71.057 41.1633 70.974 41.1703 70.616 40.9263C70.46 40.8203 70.468 40.8413 69.977 40.2133C69.498 39.6003 69.584 39.6213 69.474 39.4013C69.251 38.9553 69.281 38.8433 69.087 38.6663C68.867 38.4653 68.596 38.3983 68.43 38.3573C68.253 38.3133 68.108 38.2773 67.927 38.3183C67.651 38.3843 67.372 38.4883 67.311 38.5723Z" fill="#4C4C4C"/>
<path d="M106.953 109.783C106.433 109.818 106.076 109.996 105.87 110.102C105.402 110.343 105.444 110.48 104.826 110.927C104.326 111.289 104.257 111.229 104.014 111.459C103.95 111.519 103.296 112.156 103.589 112.63C103.812 112.991 104.476 113.083 105.445 113.216C105.445 113.216 106.91 113.417 109.428 113.003C109.562 112.981 109.858 112.929 110.124 112.763C110.227 112.699 110.416 112.581 110.472 112.39C110.549 112.128 110.322 111.909 110.24 111.831C110.054 111.653 109.89 111.624 109.621 111.485C109.248 111.291 109.05 111.072 108.654 110.633C108.233 110.166 108.257 110.046 107.958 109.914C107.564 109.742 107.116 109.772 106.953 109.783Z" fill="#959595"/>
<path d="M106.387 109.894C106.612 109.906 107.117 110.02 107.39 110.227C107.467 110.285 107.517 110.343 107.661 110.6C107.93 111.08 108.065 111.321 108.086 111.532C108.125 111.915 108.498 112.342 108.782 112.623C108.988 112.826 108.952 112.942 109.13 112.996C109.352 113.063 109.642 112.968 109.862 112.905C110.117 112.831 110.385 112.658 110.487 112.397C110.501 112.361 110.565 112.059 110.329 111.852C110.133 111.68 110.05 111.686 109.692 111.518C109.536 111.445 109.544 111.459 109.053 111.027C108.574 110.605 108.66 110.619 108.55 110.468C108.327 110.161 108.357 110.084 108.163 109.962C107.943 109.824 107.672 109.778 107.506 109.749C107.329 109.719 107.184 109.694 107.003 109.722C106.727 109.765 106.448 109.836 106.387 109.894Z" fill="#4C4C4C"/>
<path d="M127.592 92.4212C127.323 92.5202 127.222 92.5872 126.511 92.9862C125.877 93.3422 125.73 93.4162 125.47 93.6102C125.105 93.8822 124.921 94.0222 124.87 94.2142C124.762 94.6172 125.154 95.0292 125.49 95.3832C125.9 95.8152 126.468 96.4122 127.471 96.6302C127.758 96.6922 128.566 96.8292 129.452 96.4742C129.865 96.3092 130.574 96.0252 130.793 95.3632C130.963 94.8492 130.752 94.3642 130.593 93.9992C130.336 93.4092 129.942 93.0672 129.732 92.8882C129.382 92.5902 128.954 92.2272 128.371 92.2252C128.125 92.2262 127.947 92.2912 127.592 92.4212Z" fill="#959595"/>
<path d="M127.916 92.3092C128.017 92.2552 128.183 92.1802 128.393 92.1872C128.52 92.1912 128.727 92.1742 129.109 92.4092C129.321 92.5392 129.507 92.6692 129.778 92.9022C130.013 93.1052 130.219 93.3652 130.455 93.7072C130.706 94.0702 130.953 94.4272 130.915 94.8962C130.884 95.2842 130.707 95.5972 130.588 95.7522C130.294 96.1362 129.9 96.2712 129.754 96.3382C129.405 96.4992 129.058 96.5732 128.571 96.6882C128.344 96.7422 128.155 96.6992 128.031 96.7042C128.167 96.7092 128.748 96.6392 129.113 96.2602C129.364 96.0002 129.408 95.6882 129.453 95.3642C129.514 94.9282 129.442 94.5912 129.373 94.2732C129.279 93.8362 129.141 93.5392 128.993 93.2212C128.798 92.8012 128.692 92.6912 128.633 92.6362C128.384 92.4052 128.09 92.3362 127.916 92.3092Z" fill="#4C4C4C"/>
<path d="M92.939 122.404C92.67 122.503 92.569 122.57 91.858 122.969C91.224 123.325 91.077 123.399 90.817 123.593C90.452 123.865 90.268 124.005 90.217 124.197C90.109 124.6 90.501 125.012 90.837 125.366C91.247 125.798 91.815 126.395 92.818 126.613C93.105 126.675 93.913 126.812 94.799 126.457C95.212 126.292 95.921 126.008 96.14 125.346C96.31 124.832 96.099 124.347 95.94 123.982C95.683 123.392 95.289 123.05 95.08 122.871C94.73 122.573 94.302 122.21 93.719 122.208C93.472 122.209 93.295 122.274 92.939 122.404Z" fill="#959595"/>
<path d="M93.263 122.292C93.364 122.238 93.53 122.163 93.74 122.17C93.867 122.174 94.074 122.157 94.456 122.392C94.668 122.522 94.854 122.652 95.125 122.885C95.36 123.088 95.566 123.348 95.802 123.69C96.053 124.053 96.3 124.41 96.262 124.879C96.231 125.267 96.054 125.58 95.935 125.735C95.641 126.119 95.247 126.254 95.101 126.321C94.752 126.482 94.405 126.556 93.918 126.671C93.691 126.725 93.502 126.682 93.378 126.687C93.514 126.692 94.095 126.622 94.46 126.243C94.711 125.983 94.755 125.671 94.8 125.347C94.861 124.911 94.789 124.574 94.72 124.256C94.626 123.819 94.488 123.522 94.34 123.204C94.145 122.784 94.039 122.674 93.98 122.619C93.731 122.388 93.437 122.319 93.263 122.292Z" fill="#4C4C4C"/>
<path d="M136.673 71.6803C133.214 67.5153 129.867 63.5123 126.552 59.4823C124.06 56.4533 121.636 53.3673 119.132 50.3473C116.435 47.0943 113.634 43.9273 110.965 40.6513C109.031 38.2773 107.203 35.8133 105.405 33.3333C104.795 32.4923 104.263 32.0293 103.181 32.4833C101.757 33.0803 100.258 33.5023 98.841 34.1133C97.773 34.5743 97.731 35.0973 98.484 36.0013C104.37 43.0723 110.307 50.1023 116.12 57.2323C120.756 62.9183 125.246 68.7233 129.79 74.4843C130.812 75.7803 131.79 77.1123 132.883 78.5533C130.544 81.9723 127.612 85.1773 124.327 88.0493C122.026 90.0603 119.713 92.0843 117.226 93.8483C114.456 95.8133 111.511 97.5383 108.586 99.2733C106.997 100.215 105.325 101.069 103.704 101.962C102.803 102.458 94.493 107.121 94.158 107.38C90.65 110.088 87.112 112.665 83.583 115.345C83.265 115.587 80.181 118.076 79.722 118.357C78.398 119.166 77.041 119.951 75.616 120.555C74.847 120.881 69.408 122.62 68.178 122.998C66.811 123.418 65.258 123.63 63.852 123.442C60.282 122.966 56.784 122.221 53.459 120.628C48.726 118.36 44.582 115.436 41.318 111.303C38.566 107.818 36.492 103.985 35.429 99.6563C34.038 93.9903 35.304 88.8033 38.011 83.7253C42.543 75.2233 48.668 67.9183 54.869 60.6693C57.078 58.0873 59.696 55.8543 62.137 53.4713C62.393 53.2213 63.873 52.1623 64.137 51.9533C66.792 49.8453 66.613 50.2283 67.966 49.0033C71.497 45.8073 75.364 43.0793 79.451 40.6593C84.644 37.5843 89.747 34.3243 95.112 31.5813C99.08 29.5523 103.343 27.9143 107.816 27.3593C111.351 26.9213 114.987 26.6563 118.517 26.9823C122.949 27.3913 126.651 29.8153 129.788 32.8933C133.025 36.0693 135.954 39.5283 138.023 43.6233C138.153 43.8813 138.263 44.1503 138.264 44.1533C136.225 41.9753 134.144 39.4613 131.757 37.2843C129.444 35.1753 127.091 32.9603 123.925 32.1613C123.807 32.2883 123.776 32.3503 123.659 32.4783C124.435 33.4623 125.32 34.3743 126.016 35.4703C128.903 38.9623 131.886 42.3253 134.66 45.9233C136.509 48.1993 138.349 50.5103 140.047 52.8503C140.869 53.8603 141.394 54.9033 140.997 56.2643C140.911 56.9333 140.962 57.6003 140.806 58.6833C139.678 57.3223 138.78 56.2083 137.849 55.1223C134.784 51.5463 131.683 48.0013 128.642 44.4053C125.781 41.0233 122.98 37.5913 120.15 34.1833C119.598 33.5183 119.037 32.8593 118.482 32.1963C116.598 29.9443 112.966 29.1163 110.283 30.3033C109.416 30.6873 109.776 31.0013 110.268 31.6043C112.283 34.0753 117.013 39.6573 117.753 40.8673C120.262 43.9503 122.796 47.0733 125.337 50.1303C129.805 55.5063 134.624 60.8553 138.787 66.3053C139.062 66.6383 139.103 67.5883 138.925 67.9843C138.325 69.3133 137.374 70.3883 136.673 71.6803ZM57.345 64.1903C65.068 73.9233 72.795 83.0553 80.267 92.4733C80.917 93.0393 81.311 93.9203 82.091 94.8823C84.591 97.9683 87.145 101.011 89.625 104.113C90.319 104.982 90.873 104.837 91.686 104.311C93.376 103.218 95.111 102.189 96.872 101.215C97.642 100.79 97.959 100.375 97.364 99.6173C96.593 98.6343 95.83 97.6433 95.021 96.6913C91.722 92.8073 88.347 88.9853 85.113 85.0473C81.607 80.7783 78.164 76.4533 74.81 72.0633C71.33 67.5073 67.986 62.8473 64.595 58.2243C64.131 57.5913 63.581 57.3803 62.97 57.8823C62.412 58.3413 61.975 58.9453 61.459 59.4603C58.537 62.3763 55.481 65.1703 52.719 68.2303C50.452 70.7413 48.551 74.0483 46.476 76.7333C46.657 76.8873 46.66 76.9073 46.841 77.0603C48.496 74.8793 48.577 74.8043 49.428 73.7523C50.37 74.9613 51.216 76.0943 52.112 77.1863C56.301 82.2933 60.497 87.3943 64.702 92.4873C69.401 98.1783 74.112 103.859 78.82 109.542C79.726 110.635 80.647 111.716 81.5 112.73C83.373 111.258 85.018 110.01 86.596 108.682C86.879 108.444 87.13 107.675 86.978 107.487C85.194 105.274 83.324 103.13 81.489 100.957C77.373 96.0843 73.23 91.2323 69.161 86.3203C65.553 81.9633 62.023 77.5403 58.472 73.1363C57.019 71.3343 55.6 69.5063 54.186 67.7163C55.305 66.4663 56.308 65.3483 57.345 64.1903ZM45.666 77.6403C45.406 77.9123 45.179 78.0973 45.016 78.3273C42.573 81.7813 40.935 85.6293 39.831 89.6733C38.629 94.0773 38.807 98.5103 40.608 102.739C41.378 104.547 42.402 106.302 43.595 107.863C45.3 110.094 47.031 112.409 49.173 114.177C52.776 117.149 57.152 118.693 61.723 119.588C62.819 119.802 63.954 119.816 65.364 119.95C65.038 119.336 64.934 119.008 64.728 118.769C59.896 113.196 55.019 107.663 50.225 102.058C47.197 98.5173 44.273 94.8873 41.351 91.2573C40.993 90.8123 40.678 90.0623 40.794 89.5573C41.135 88.0683 41.703 86.6303 42.255 84.9523C42.705 85.4793 43.011 85.8233 43.302 86.1803C45.556 88.9483 47.809 91.7173 50.061 94.4883C51.192 95.8803 52.323 97.2733 53.453 98.6663C54.257 99.6583 55.117 100.647 55.937 101.643C56.359 102.155 56.773 102.672 57.172 103.202C57.573 103.734 58 104.245 58.411 104.77C58.815 105.286 59.146 105.879 59.603 106.349C60.208 106.971 60.773 107.638 61.355 108.281C62.532 109.579 63.704 110.882 64.861 112.197C66.041 113.538 67.205 114.894 68.341 116.272C70.628 119.048 70.674 118.771 74.127 117.515C74.6 117.343 75.002 116.973 75.437 116.695C76.761 115.85 76.834 115.485 75.848 114.262C74.063 112.048 72.273 109.837 70.467 107.64C62.873 98.4053 55.274 89.1753 47.671 79.9483C47.044 79.1873 46.378 78.4583 45.666 77.6403ZM111.116 93.9823C110.541 93.3723 110.098 92.9883 109.659 92.4763C105.421 87.5313 101.133 82.6263 96.973 77.6163C92.561 72.3013 88.253 66.8993 83.936 61.5063C80.832 57.6293 77.744 53.7383 74.754 49.7743C74.186 49.0213 73.777 49.0143 73.21 49.4483C71.771 50.5513 70.337 51.6693 68.997 52.8863C68.72 53.1373 68.619 54.0343 68.84 54.3113C70.559 56.4723 72.6 58.2483 74.197 60.5693C78.732 65.9863 83.082 71.6573 87.479 77.2483C90.574 80.9563 93.601 84.7273 96.523 88.5763C97.952 90.4593 99.409 92.2823 100.802 94.1643C101.58 95.1693 102.37 96.1173 103.203 97.0763C103.338 97.2313 103.661 97.2263 103.893 97.1383C106.021 96.3263 108.081 95.4903 110.191 94.6323C110.453 94.5263 110.698 94.3153 111.116 93.9823ZM114.842 92.7123C115.491 92.2753 115.958 91.9253 116.458 91.6313C117.61 90.9543 118.764 90.2803 119.943 89.6513C120.786 89.2013 120.854 88.7753 120.157 88.0883C119.393 87.3343 118.719 86.4863 118.025 85.6633C113.937 80.8173 109.828 75.9893 105.779 71.1113C101.477 65.9283 97.174 60.7433 92.983 55.4703C89.768 51.4253 86.734 47.2363 83.581 43.1403C83.402 42.9083 82.75 42.7403 82.542 42.8793C81.038 43.8823 79.58 44.9583 78.131 46.0423C77.452 46.5503 77.61 47.1213 78.09 47.7163C80.933 51.2413 83.762 54.7783 86.597 58.3113C91.031 63.8353 95.423 69.3933 99.911 74.8723C104.07 79.9493 108.333 84.9403 112.549 89.9703C113.339 90.9113 114.125 91.8553 114.842 92.7123ZM129.668 81.5843C128.075 79.5073 126.652 77.5523 125.125 75.6823C120.9 70.5053 116.626 65.3683 112.382 60.2063C108.544 55.5363 104.716 50.8583 100.893 46.1753C98.681 43.4663 96.458 40.7653 94.308 38.0083C93.816 37.3773 93.549 36.6333 92.551 37.0813C91.221 37.6783 89.851 38.1983 88.564 38.8773C87.409 39.4873 87.324 40.3523 88.157 41.4023C89.362 42.9223 90.556 44.4523 91.777 45.9593C97.483 52.9973 103.212 60.0173 108.904 67.0673C112.883 71.9963 116.812 76.9643 120.767 81.9133C121.87 83.2943 122.985 84.6653 124.289 86.2813C126.174 84.6353 127.874 83.1503 129.668 81.5843Z" fill="#959595"/>
<path d="M98.956 34.8922C99.927 34.4872 100.713 34.0452 101.563 33.8652C101.936 33.7862 102.839 34.1112 103.123 34.4572C106.735 38.8582 110.279 43.4462 113.867 47.8672C117.538 52.3902 121.237 56.8882 124.927 61.3962C127.687 64.7672 130.54 68.0402 133.34 71.4292C133.363 71.4692 133.053 71.8252 133.018 71.8782C132.837 72.1532 132.68 72.4452 132.508 72.7262C132.255 73.1372 132.013 73.7222 131.681 74.0762C131.187 74.6032 130.696 74.3362 130.197 73.8742C129.635 73.3542 129.172 72.7182 128.698 72.1212C124.173 66.4092 119.645 60.8122 115.051 55.1562C110.179 49.1582 105.155 43.1622 100.258 37.1842C99.825 36.6532 99.518 35.7382 98.956 34.8922Z" fill="#757575"/>
<path d="M138.238 64.8722C128.89 53.8202 119.418 42.6132 110.746 31.2182C112.579 30.3502 113.432 30.3952 114.498 31.6522C118.1 35.8992 121.614 40.2082 125.222 44.4502C128.188 47.9372 131.323 51.3632 134.327 54.8192C135.992 56.7352 137.591 58.6742 139.324 60.5272C140.337 61.6102 140.321 62.9432 139.245 63.9242C138.966 64.1792 138.65 64.3832 138.238 64.8722Z" fill="#757575"/>
<path d="M138.87 50.1982C134.974 45.4502 130.851 40.4962 126.954 35.7482C127.048 35.6712 127.301 35.4432 127.395 35.3662C133.241 39.6722 138.919 46.0582 138.87 50.1982Z" fill="#757575"/>
<path d="M88.725 101.861C85.871 98.5252 83 95.2492 80.217 91.9002C75.837 86.6272 71.453 81.3552 67.191 75.9872C64.32 72.3702 61.662 68.5842 58.89 64.8882C58.45 64.3012 58.492 63.7742 58.931 63.2702C59.75 62.3292 60.762 61.1012 61.786 59.9752C63.424 62.1392 64.825 64.2642 66.328 66.1372C68.999 69.4652 71.804 72.7312 74.485 76.0512C77.629 79.9472 80.755 83.8722 83.906 87.7632C86.023 90.3772 88.238 93.0962 90.364 95.7022C90.988 96.4672 91.522 97.3162 92.023 98.1712C92.46 98.9162 92.261 99.5542 91.274 100.062C90.402 100.51 89.651 101.194 88.725 101.861Z" fill="#757575"/>
<path d="M53.038 69.1973C55.04 71.6333 56.958 73.8713 58.785 76.1093C64.354 82.9323 70.022 89.8553 75.553 96.7083C77.577 99.2163 79.864 101.787 81.32 104.529C82.497 106.291 82.213 108.604 80.595 109.401C79.954 109.717 79.63 109.685 79.196 109.154C74.006 102.811 68.813 96.4703 63.594 90.1513C60.293 86.1543 56.932 82.2083 53.628 78.2133C52.555 76.9163 51.599 75.5243 50.551 74.2053C50.07 73.6003 50.04 73.0393 50.507 72.4553C51.251 71.5233 52.134 70.3023 53.038 69.1973Z" fill="#757575"/>
<path d="M45.947 79.1323C47.351 80.9243 48.784 82.7753 50.193 84.5633C53.769 89.1003 57.367 93.6033 60.878 98.1903C63.837 102.056 66.652 106.017 69.449 110C70.428 111.393 71.268 113.21 72.056 114.72C70.375 115.74 68.658 115.674 67.545 114.407C64.07 110.453 60.61 106.484 57.235 102.446C53.388 97.8443 49.636 93.1633 45.848 88.5113C45.494 88.0773 45.162 87.6223 44.854 87.1553C44.223 86.2013 42.992 85.1303 43.129 84.2903C43.409 82.5823 44.432 80.9963 45.149 79.3593C45.339 79.3713 45.757 79.1213 45.947 79.1323Z" fill="#757575"/>
<path d="M57.047 114.681C51.626 114.477 47.621 111.871 44.429 107.992C40.566 103.299 38.91 97.9842 40.249 91.8662C41.642 92.5022 52.603 105.636 57.047 114.681Z" fill="#757575"/>
<path d="M69.513 53.8702C69.601 53.6552 69.606 53.6062 69.634 53.5782C71.784 51.4662 72.301 51.0892 74.21 53.4172C79.686 60.0962 85.115 67.0102 90.602 73.6802C95.371 79.4782 100.178 85.4072 104.98 91.1782C105.255 91.5092 105.718 91.8912 106.106 92.3632C104.796 92.8482 103.216 93.3322 101.956 93.6462C101.58 93.7402 100.912 93.3042 100.607 92.9262C99.58 91.6502 98.71 90.2482 97.683 88.9722C94.253 84.7142 90.761 80.5062 87.331 76.2492C82.697 70.4992 78.094 64.7242 73.487 58.9512C72.143 57.2702 70.833 55.5612 69.513 53.8702Z" fill="#757575"/>
<path d="M116.02 87.5843C115.055 88.1513 113.805 88.7183 112.914 89.2423C100.97 75.6703 89.854 61.5983 78.885 47.5503C78.978 47.3063 78.982 47.2563 79.009 47.2303C80.907 45.3823 81.587 45.0323 83.236 47.0573C88.628 53.6753 94.07 60.5313 99.47 67.1433C104.739 73.5933 110.065 80.1823 115.329 86.6363C115.544 86.9013 115.753 87.1813 116.02 87.5843Z" fill="#757575"/>
<path d="M125.578 80.0993C124.554 81.0183 123.317 81.8933 122.292 82.8123C111.031 68.8183 99.765 54.8143 88.469 40.7773C89.479 40.1283 90.23 39.4813 91.036 39.1183C91.298 39.0003 92.078 39.2083 92.32 39.4933C94.331 41.8663 96.502 44.2873 98.462 46.7023C104.234 53.8113 109.871 60.9213 115.664 68.0123C118.722 71.7543 121.746 75.3263 124.848 79.0323C125.011 79.2283 125.359 79.7843 125.578 80.0993Z" fill="#757575"/>
<path d="M111.065 94.0783C110.647 94.4113 110.443 94.6613 110.182 94.7683C108.072 95.6263 105.955 96.4683 103.826 97.2803C103.594 97.3683 103.154 97.3403 103.02 97.1853C102.187 96.2263 101.402 95.2243 100.623 94.2193C99.186 92.3633 97.785 90.4793 96.332 88.6353C93.342 84.8413 90.332 81.0633 87.323 77.2843C82.91 71.7423 78.508 66.1913 74.064 60.6753C72.331 58.5243 70.467 56.4793 68.748 54.3183C68.527 54.0403 68.628 53.1443 68.905 52.8933C70.245 51.6763 71.679 50.5573 73.118 49.4553C73.685 49.0213 74.094 49.0283 74.662 49.7813C77.652 53.7453 80.74 57.6363 83.844 61.5133C88.161 66.9063 92.469 72.3083 96.881 77.6233C101.041 82.6343 105.329 87.5383 109.567 92.4833C110.006 92.9943 110.49 93.4673 111.065 94.0783ZM69.633 53.8103C70.954 55.5013 72.264 57.2103 73.607 58.8923C78.214 64.6643 82.817 70.4393 87.451 76.1903C90.882 80.4473 94.374 84.6553 97.803 88.9133C98.83 90.1893 99.7 91.5913 100.727 92.8673C101.031 93.2453 101.699 93.6803 102.076 93.5873C103.337 93.2733 104.541 92.7323 105.852 92.2473C105.464 91.7753 105.193 91.4413 104.917 91.1103C100.116 85.3383 95.288 79.5883 90.519 73.7903C85.032 67.1203 79.608 60.3983 74.132 53.7193C72.223 51.3913 71.905 51.4063 69.755 53.5183C69.727 53.5463 69.721 53.5963 69.633 53.8103Z" fill="#4C4C4C"/>
<path d="M114.749 92.7183C114.033 91.8613 113.246 90.9173 112.458 89.9763C108.242 84.9463 103.979 79.9553 99.82 74.8783C95.331 69.3993 90.939 63.8413 86.506 58.3173C83.671 54.7853 80.842 51.2483 77.999 47.7223C77.519 47.1273 77.361 46.5573 78.04 46.0483C79.489 44.9643 80.946 43.8893 82.451 42.8853C82.659 42.7463 83.311 42.9143 83.49 43.1463C86.642 47.2423 89.676 51.4313 92.892 55.4763C97.083 60.7493 101.386 65.9343 105.688 71.1173C109.737 75.9953 113.847 80.8233 117.934 85.6693C118.628 86.4923 119.302 87.3403 120.066 88.0943C120.763 88.7813 120.694 89.2073 119.852 89.6573C118.674 90.2863 117.519 90.9603 116.367 91.6373C115.865 91.9313 115.398 92.2813 114.749 92.7183ZM115.804 87.5543C115.537 87.1513 115.372 86.8463 115.156 86.5823C109.892 80.1283 104.624 73.6773 99.355 67.2273C93.955 60.6153 88.548 54.0093 83.155 47.3913C81.506 45.3673 81.026 45.3253 79.128 47.1723C79.101 47.1983 79.097 47.2483 79.004 47.4923C89.974 61.5403 101.089 75.6113 113.033 89.1843C113.925 88.6593 114.839 88.1223 115.804 87.5543Z" fill="#4C4C4C"/>
<path d="M129.575 81.5903C127.781 83.1563 126.081 84.6413 124.196 86.2873C122.893 84.6713 121.778 83.3003 120.674 81.9193C116.719 76.9713 112.79 72.0023 108.811 67.0733C103.119 60.0233 97.39 53.0033 91.683 45.9653C90.461 44.4583 89.268 42.9283 88.063 41.4083C87.231 40.3583 87.315 39.4933 88.47 38.8833C89.757 38.2043 91.127 37.6833 92.457 37.0873C93.456 36.6393 93.722 37.3833 94.214 38.0143C96.364 40.7713 98.587 43.4723 100.799 46.1813C104.622 50.8633 108.45 55.5423 112.288 60.2123C116.531 65.3743 120.806 70.5113 125.031 75.6883C126.559 77.5583 127.982 79.5133 129.575 81.5903ZM125.389 80.0823C125.169 79.7673 125.038 79.5453 124.875 79.3503C121.774 75.6433 118.63 71.9713 115.573 68.2293C109.779 61.1383 104.039 54.0033 98.267 46.8943C96.306 44.4793 94.333 42.0743 92.322 39.7013C92.08 39.4163 91.46 39.1253 91.198 39.2433C90.391 39.6063 89.673 40.1673 88.663 40.8153C99.959 54.8523 111.151 68.7593 122.413 82.7533C123.438 81.8333 124.365 81.0013 125.389 80.0823Z" fill="#4C4C4C"/>
<path d="M97.272 99.6223C96.501 98.6393 95.738 97.6483 94.929 96.6963C91.63 92.8123 88.255 88.9903 85.021 85.0523C81.515 80.7833 78.072 76.4583 74.718 72.0683C71.238 67.5123 67.894 62.8523 64.503 58.2293C64.039 57.5963 63.489 57.3853 62.878 57.8873C62.32 58.3463 61.883 58.9503 61.367 59.4653C58.445 62.3813 55.389 65.1753 52.627 68.2353C50.36 70.7463 47.424 75.2363 45.349 77.9213C45.53 78.0753 45.711 78.2283 45.892 78.3823C46.672 77.4323 48.466 74.8173 49.336 73.7573C50.278 74.9663 51.124 76.0993 52.02 77.1913C56.209 82.2983 60.405 87.3993 64.61 92.4923C69.309 98.1833 74.02 103.864 78.728 109.547C79.634 110.64 80.555 111.721 81.408 112.735C83.281 111.263 84.926 110.015 86.504 108.687C86.787 108.449 87.038 107.68 86.886 107.492C85.102 105.279 83.232 103.135 81.397 100.962C77.281 96.0893 73.138 91.2373 69.069 86.3253C65.461 81.9683 61.931 77.5453 58.38 73.1413C56.927 71.3393 55.508 69.5113 54.094 67.7213C55.213 66.4723 56.216 65.3533 57.253 64.1953C64.817 73.7283 72.14 82.9563 79.459 92.1803C80.165 93.0693 80.961 93.8803 81.745 94.7003C82.526 95.5183 83.223 96.3923 83.941 97.2673C84.758 98.2623 85.576 99.2563 86.393 100.251C87.446 101.535 88.496 102.821 89.533 104.119C90.227 104.988 90.781 104.843 91.594 104.317C93.284 103.224 95.019 102.195 96.78 101.221C97.55 100.795 97.867 100.381 97.272 99.6223ZM58.665 76.2313C64.234 83.0543 69.819 89.8633 75.35 96.7163C77.374 99.2243 79.383 101.759 81.171 104.435C82.348 106.197 82.286 108.434 80.668 109.231C80.027 109.547 79.703 109.515 79.269 108.984C74.079 102.641 68.886 96.3003 63.667 89.9813C60.366 85.9843 57.005 82.0383 53.701 78.0433C52.628 76.7463 51.672 75.3543 50.624 74.0353C50.143 73.4303 50.113 72.8693 50.58 72.2853C51.326 71.3513 52.091 70.4333 52.995 69.3283C54.996 71.7653 56.838 73.9923 58.665 76.2313ZM91.336 99.9433C90.464 100.392 89.713 101.075 88.787 101.743C85.933 98.4073 83.062 95.1313 80.279 91.7823C75.899 86.5093 71.515 81.2373 67.253 75.8693C64.382 72.2523 61.724 68.4663 58.952 64.7703C58.512 64.1833 58.554 63.6563 58.993 63.1523C59.812 62.2113 60.666 61.2993 61.69 60.1733C63.328 62.3373 64.735 64.2883 66.239 66.1623C68.91 69.4903 71.661 72.7543 74.341 76.0753C77.485 79.9713 80.569 83.9163 83.719 87.8073C85.836 90.4213 88.041 92.9623 90.167 95.5683C90.791 96.3333 91.32 97.1863 91.821 98.0413C92.258 98.7843 92.323 99.4353 91.336 99.9433Z" fill="#4C4C4C"/>
<path d="M75.754 114.267C73.969 112.053 72.179 109.842 70.373 107.645C62.779 98.4102 55.18 89.1802 47.577 79.9532C46.95 79.1922 46.285 78.4642 45.573 77.6462C45.313 77.9182 45.086 78.1032 44.923 78.3332C42.48 81.7872 40.842 85.6352 39.738 89.6792C38.536 94.0822 38.714 98.5162 40.515 102.745C41.285 104.553 42.309 106.308 43.502 107.869C45.207 110.1 46.938 112.415 49.08 114.183C52.683 117.155 57.059 118.699 61.63 119.594C62.726 119.808 63.861 119.822 65.271 119.956C64.945 119.342 64.841 119.014 64.635 118.775C59.803 113.202 54.926 107.669 50.132 102.064C47.104 98.5232 44.18 94.8932 41.258 91.2632C40.9 90.8182 40.585 90.0682 40.701 89.5632C41.042 88.0742 41.61 86.6362 42.162 84.9582C42.612 85.4852 42.918 85.8292 43.209 86.1862C47.213 91.1072 51.22 96.0262 55.211 100.958C55.473 101.282 55.73 101.599 55.92 101.953L58.913 105.703C58.917 105.707 58.921 105.709 58.925 105.713C62.081 109.192 65.263 112.655 68.248 116.279C70.535 119.055 70.581 118.778 74.034 117.522C74.507 117.35 74.909 116.98 75.344 116.702C76.667 115.855 76.74 115.49 75.754 114.267ZM57.071 114.632C51.65 114.428 47.742 111.812 44.549 107.933C40.686 103.24 39.03 97.9252 40.369 91.8072C46.152 99.1712 52.569 106.037 57.071 114.632ZM67.666 114.348C64.191 110.394 60.731 106.425 57.356 102.387C53.509 97.7852 49.757 93.1042 45.969 88.4522C45.615 88.0182 45.283 87.5632 44.975 87.0962C44.344 86.1422 43.113 85.0712 43.25 84.2312C43.53 82.5232 44.553 80.9372 45.27 79.3002C45.46 79.3102 45.65 79.3202 45.84 79.3302C47.244 81.1222 48.645 82.9162 50.054 84.7042C53.63 89.2412 57.262 93.7362 60.773 98.3232C63.732 102.189 66.606 106.123 69.404 110.106C70.383 111.499 71.022 113.13 71.81 114.641C70.128 115.663 68.779 115.615 67.666 114.348Z" fill="#4C4C4C"/>
<path d="M142.955 46.0433C140.812 42.5703 138.734 39.0073 135.985 35.9673C133.151 32.8343 129.358 30.4823 125.684 28.4483C125.393 28.2873 125.099 28.1333 124.798 27.9903C118.733 25.1043 111.084 25.7863 104.726 27.3383C96.368 29.3783 89.06 34.1423 81.713 38.4913C79.545 39.7743 77.391 41.0823 75.265 42.4343C71.19 45.0263 67.489 48.1793 63.674 51.1173C59.974 53.9663 56.617 57.4553 53.523 60.9383C50.446 64.4033 47.609 68.1063 44.837 71.8143C42.421 75.0463 39.953 78.3503 38.086 81.9293C37.17 83.6853 36.008 85.4003 35.31 87.2543C34.669 88.9573 34.245 90.7733 34.054 92.5843C33.849 94.5303 33.914 96.5053 34.245 98.4333C34.582 100.395 35.354 102.106 35.979 103.969C36.902 106.716 38.605 108.794 40.298 111.094C42.346 113.877 44.462 116.291 47.406 118.157C50.96 120.411 54.992 122.011 58.95 123.401C60.226 123.849 61.65 123.95 63.018 124.041C64.126 124.114 65.223 124.027 66.323 124.026C67.623 124.025 68.642 124.09 69.843 123.593C72.109 122.656 74.457 122.139 76.642 120.975C78.828 119.811 80.845 118.354 82.779 116.813C86.449 113.89 90.107 110.941 93.982 108.29C97.924 105.594 102.097 103.417 106.424 101.413C110.497 99.5263 114.638 97.7743 118.6 95.6553C122.589 93.5223 126.153 90.9173 129.568 87.9633C133.647 84.4343 137.395 80.5153 140.626 76.1923C143.19 72.7613 144.91 68.7843 146.047 64.6653C146.47 63.1323 146.707 61.5753 146.776 60.0173C146.992 55.1363 145.547 50.2433 142.955 46.0433ZM133.08 71.7163C131.118 75.0223 131.161 74.9883 128.778 71.9793C124.253 66.2673 119.703 60.5743 115.108 54.9183C110.236 48.9203 105.297 42.9773 100.4 36.9993C99.966 36.4693 99.631 35.8593 99.068 35.0133C100.039 34.6083 100.832 34.1573 101.682 33.9773C102.055 33.8983 102.678 34.2593 102.962 34.6063C106.574 39.0073 110.14 43.4463 113.728 47.8673C117.399 52.3903 121.072 56.9113 124.762 61.4183C127.522 64.7893 130.309 68.1383 133.109 71.5273C133.106 71.5543 133.119 71.6503 133.08 71.7163ZM139.138 63.6203C138.858 63.8753 138.642 64.1993 138.23 64.6883C128.882 53.6363 119.657 42.7503 110.986 31.3563C112.819 30.4883 113.35 30.5113 114.417 31.7693C118.019 36.0163 121.554 40.3213 125.162 44.5633C128.128 48.0503 131.162 51.4803 134.165 54.9353C135.83 56.8513 137.447 58.8133 139.179 60.6663C140.192 61.7483 140.214 62.6393 139.138 63.6203ZM140.844 56.2213C140.692 56.8783 140.762 57.5873 140.712 58.6883C139.584 57.3273 138.686 56.2133 137.755 55.1273C134.69 51.5513 131.589 48.0063 128.548 44.4103C125.687 41.0283 122.886 37.5963 120.056 34.1883C119.504 33.5233 118.943 32.8643 118.388 32.2013C116.504 29.9493 112.873 29.1213 110.189 30.3083C109.322 30.6923 109.529 31.0543 110.02 31.6573C112.035 34.1283 113.992 36.6473 116.036 39.2323L117.093 40.5133C117.209 40.6383 117.338 40.7903 117.49 40.9763C117.729 41.2703 117.967 41.5663 118.206 41.8603L118.217 41.8743C120.476 44.6643 122.712 47.4743 125.006 50.2353C129.474 55.6113 133.996 60.9423 138.45 66.3293C138.725 66.6623 138.816 67.4113 138.638 67.8063C138.039 69.1363 137.28 70.3943 136.578 71.6863C133.119 67.5213 129.772 63.5173 126.457 59.4883C123.965 56.4593 121.541 53.3733 119.037 50.3533C116.34 47.1003 113.539 43.9333 110.87 40.6573C108.936 38.2833 107.108 35.8193 105.31 33.3393C104.7 32.4983 104.168 32.0353 103.086 32.4893C101.662 33.0863 100.163 33.5083 98.746 34.1193C97.678 34.5803 97.637 35.1033 98.389 36.0073C104.275 43.0783 110.212 50.1083 116.025 57.2373C120.661 62.9233 125.151 68.7283 129.695 74.4893C130.717 75.7853 131.695 77.1173 132.788 78.5583C130.449 81.9773 127.517 85.1823 124.232 88.0543C121.931 90.0653 119.618 92.0893 117.131 93.8533C114.361 95.8183 111.416 97.5433 108.491 99.2783C107.453 99.8943 106.37 100.428 105.287 100.958C104.196 101.492 103.139 102.064 102.082 102.663C101.272 103.068 100.49 103.55 99.697 103.991C98.447 104.686 97.196 105.381 95.946 106.076C95.528 106.308 95.11 106.541 94.692 106.773C94.496 106.942 94.231 107.097 94.031 107.251C90.523 109.959 87.017 112.67 83.488 115.35C83.17 115.592 80.086 118.081 79.627 118.362C78.303 119.171 76.946 119.956 75.521 120.56C74.752 120.886 69.313 122.625 68.083 123.003C66.716 123.423 65.163 123.635 63.757 123.447C60.187 122.971 56.689 122.226 53.364 120.633C48.631 118.365 44.487 115.441 41.223 111.308C38.471 107.823 36.397 103.99 35.334 99.6613C33.943 93.9953 35.209 88.8083 37.916 83.7303C42.448 75.2283 48.573 67.9233 54.774 60.6743C56.608 58.5303 58.71 56.6403 60.757 54.7073C61.258 54.2343 61.747 53.7403 62.304 53.3373C62.887 52.9153 63.466 52.4863 64.04 52.0523C65.189 51.1833 66.319 50.2913 67.431 49.3763C67.993 48.9133 68.55 48.4453 69.102 47.9703C69.649 47.5003 70.172 46.9703 70.75 46.5443C71.878 45.7123 72.979 44.8383 74.129 44.0313C75.825 42.8403 77.572 41.7223 79.355 40.6663C84.548 37.5913 89.651 34.3313 95.016 31.5883C98.984 29.5593 103.247 27.9213 107.72 27.3663C111.255 26.9283 114.891 26.6633 118.421 26.9893C122.853 27.3983 126.555 29.8223 129.692 32.9003C132.929 36.0763 135.858 39.5353 137.927 43.6303C138.057 43.8883 138.167 44.1573 138.168 44.1603C136.129 41.9823 134.048 39.4683 131.661 37.2913C129.348 35.1823 126.995 32.9673 123.829 32.1683L123.476 32.5503C124.252 33.5343 125.009 34.5333 125.808 35.4983C128.695 38.9903 131.625 42.4463 134.482 45.9633C136.331 48.2393 138.041 50.6293 139.892 52.9033C140.717 53.9123 141.148 54.9063 140.844 56.2213ZM138.764 49.9333C134.868 45.1853 130.972 40.4363 127.075 35.6883C127.169 35.6113 127.263 35.5353 127.356 35.4583C132.306 39.3523 136.286 44.0393 138.764 49.9333Z" fill="#4C4C4C"/>
<path d="M42.089 63.2803C40.805 63.3663 39.453 65.0263 38.703 65.9433C38.374 66.3463 38.169 66.7573 38.281 67.2933C38.365 67.6963 38.593 68.0563 38.864 68.3663C39.949 69.6083 41.625 69.9843 43.206 69.7513C44.05 69.6273 44.742 69.5253 45.289 68.9333C45.985 68.1803 45.932 67.1913 45.921 67.0363C45.88 66.4353 45.632 66.0153 45.4 65.6233C45.089 65.0953 44.755 64.7873 44.173 64.2473C43.571 63.6893 43.287 63.5553 43.169 63.5033C42.986 63.4243 42.581 63.2463 42.089 63.2803Z" fill="#959595"/>
<path d="M42.74 63.3442C42.967 63.4072 43.351 63.5252 43.724 63.7872C43.724 63.7872 43.744 63.8012 43.766 63.8172C43.937 63.9412 44.371 64.2812 45.025 65.0512C45.667 65.8082 46.05 66.4982 45.934 67.5332C45.892 67.9102 45.784 68.2822 45.579 68.6012C44.972 69.5472 43.614 69.9402 42.566 69.9322C42.459 69.9312 42.356 69.9232 42.347 69.9222C41.882 69.8892 41.455 69.7442 41.433 69.7472C42.655 69.5942 42.858 69.4722 43.375 69.1272C44.043 68.6822 44.358 67.8982 44.328 67.1082C44.298 66.3272 44.027 65.6662 43.351 64.3432C43.135 63.9192 42.882 63.5792 42.74 63.3442Z" fill="#4C4C4C"/>
<rect x="114.095" y="115.429" width="17.1429" height="17.1429" fill="white"/>
<path d="M119.524 122.19C121.449 122.19 123.024 120.605 123.024 118.667C123.024 116.711 121.449 115.143 119.524 115.143C117.599 115.143 116.024 116.729 116.024 118.667C116.024 120.605 117.599 122.19 119.524 122.19ZM130.024 106.333C131.949 106.333 133.524 107.919 133.524 109.857V127.476C133.524 129.414 131.949 131 130.024 131H109.024C107.099 131 105.524 129.414 105.524 127.476V109.857C105.524 107.901 107.099 106.333 109.024 106.333H110.774V102.81C110.774 97.9467 114.694 94 119.524 94C124.354 94 128.274 97.9467 128.274 102.81V106.333H130.024ZM119.524 97.5238C116.619 97.5238 114.274 99.8848 114.274 102.81V106.333H124.774V102.81C124.774 99.8848 122.429 97.5238 119.524 97.5238Z" fill="#7C3AED"/>
</svg>
