<svg viewBox="0 0 177 162" fill="none" xmlns="http://www.w3.org/2000/svg">
<g clip-path="url(#clip0_471_36196)">
<path d="M88.44 134.88C117.954 134.88 141.88 110.954 141.88 81.44C141.88 51.9259 117.954 28 88.44 28C58.9259 28 35 51.9259 35 81.44C35 110.954 58.9259 134.88 88.44 134.88Z" fill="#4D4D4D" stroke="#5D5D5D" stroke-width="4" stroke-miterlimit="10"/>
<path d="M122.34 57.95C122.611 57.95 122.83 57.7306 122.83 57.46C122.83 57.1894 122.611 56.97 122.34 56.97C122.069 56.97 121.85 57.1894 121.85 57.46C121.85 57.7306 122.069 57.95 122.34 57.95Z" fill="white"/>
<path d="M93.32 38.57L94.56 38.72L93.32 38.88L93.17 40.12L93.01 38.88L91.77 38.72L93.01 38.57L93.17 37.33L93.32 38.57Z" fill="white"/>
<path d="M72.29 119.65L73.53 119.8L72.29 119.95L72.14 121.19L71.99 119.95L70.75 119.8L71.99 119.65L72.14 118.41L72.29 119.65Z" fill="white"/>
<path d="M107.96 121.04L109.21 121.19L107.96 121.34L107.81 122.58L107.66 121.34L106.42 121.19L107.66 121.04L107.81 119.8L107.96 121.04Z" fill="white"/>
<path d="M55.4 55.14L56.64 55.29L55.4 55.44L55.25 56.69L55.1 55.44L53.86 55.29L55.1 55.14L55.25 53.9L55.4 55.14Z" fill="white"/>
<path d="M127.75 105.07L128.99 105.22L127.75 105.37L127.6 106.62L127.45 105.37L126.21 105.22L127.45 105.07L127.6 103.83L127.75 105.07Z" fill="white"/>
<path d="M126.36 66.53L127.6 66.68L126.36 66.83L126.21 68.07L126.05 66.83L124.81 66.68L126.05 66.53L126.21 65.29L126.36 66.53Z" fill="white"/>
<path d="M106.77 46.5L109.62 46.84L106.77 47.19L106.43 50.04L106.08 47.19L103.23 46.84L106.08 46.5L106.43 43.65L106.77 46.5Z" fill="white"/>
<path d="M49.08 96.77L50.32 96.92L49.08 97.07L48.93 98.31L48.78 97.07L47.53 96.92L48.78 96.77L48.93 95.52L49.08 96.77Z" fill="white"/>
<path d="M73.82 44.28C73.9912 44.28 74.13 44.1412 74.13 43.97C74.13 43.7988 73.9912 43.66 73.82 43.66C73.6488 43.66 73.51 43.7988 73.51 43.97C73.51 44.1412 73.6488 44.28 73.82 44.28Z" fill="white"/>
<path d="M65.27 40.38C65.4854 40.38 65.66 40.2054 65.66 39.99C65.66 39.7746 65.4854 39.6 65.27 39.6C65.0546 39.6 64.88 39.7746 64.88 39.99C64.88 40.2054 65.0546 40.38 65.27 40.38Z" fill="white"/>
<path d="M57.96 115.12C58.1754 115.12 58.35 114.945 58.35 114.73C58.35 114.515 58.1754 114.34 57.96 114.34C57.7446 114.34 57.57 114.515 57.57 114.73C57.57 114.945 57.7446 115.12 57.96 115.12Z" fill="white"/>
<path d="M42.35 74.1801C42.5212 74.1801 42.66 74.0413 42.66 73.8701C42.66 73.6988 42.5212 73.5601 42.35 73.5601C42.1788 73.5601 42.04 73.6988 42.04 73.8701C42.04 74.0413 42.1788 74.1801 42.35 74.1801Z" fill="white"/>
<path d="M117.8 109.92C117.971 109.92 118.11 109.781 118.11 109.61C118.11 109.439 117.971 109.3 117.8 109.3C117.629 109.3 117.49 109.439 117.49 109.61C117.49 109.781 117.629 109.92 117.8 109.92Z" fill="white"/>
<path d="M96.45 124.46C96.6212 124.46 96.76 124.321 96.76 124.15C96.76 123.979 96.6212 123.84 96.45 123.84C96.2788 123.84 96.14 123.979 96.14 124.15C96.14 124.321 96.2788 124.46 96.45 124.46Z" fill="white"/>
<path d="M48.61 84.5C48.7812 84.5 48.92 84.3612 48.92 84.19C48.92 84.0188 48.7812 83.88 48.61 83.88C48.4388 83.88 48.3 84.0188 48.3 84.19C48.3 84.3612 48.4388 84.5 48.61 84.5Z" fill="white"/>
<path d="M107.5 39.91C107.671 39.91 107.81 39.7712 107.81 39.6C107.81 39.4288 107.671 39.29 107.5 39.29C107.329 39.29 107.19 39.4288 107.19 39.6C107.19 39.7712 107.329 39.91 107.5 39.91Z" fill="white"/>
<path d="M128.99 82.22C129.161 82.22 129.3 82.0812 129.3 81.91C129.3 81.7388 129.161 81.6 128.99 81.6C128.819 81.6 128.68 81.7388 128.68 81.91C128.68 82.0812 128.819 82.22 128.99 82.22Z" fill="white"/>
<path d="M117.8 45.8099C117.971 45.8099 118.11 45.6711 118.11 45.4999C118.11 45.3287 117.971 45.1899 117.8 45.1899C117.629 45.1899 117.49 45.3287 117.49 45.4999C117.49 45.6711 117.629 45.8099 117.8 45.8099Z" fill="white"/>
<path d="M84.31 122.71C84.4812 122.71 84.62 122.571 84.62 122.4C84.62 122.229 84.4812 122.09 84.31 122.09C84.1388 122.09 84 122.229 84 122.4C84 122.571 84.1388 122.71 84.31 122.71Z" fill="white"/>
<path d="M89.46 128.28C89.6312 128.28 89.77 128.141 89.77 127.97C89.77 127.799 89.6312 127.66 89.46 127.66C89.2888 127.66 89.15 127.799 89.15 127.97C89.15 128.141 89.2888 128.28 89.46 128.28Z" fill="white"/>
<path d="M56.64 106.68C56.8112 106.68 56.95 106.541 56.95 106.37C56.95 106.199 56.8112 106.06 56.64 106.06C56.4688 106.06 56.33 106.199 56.33 106.37C56.33 106.541 56.4688 106.68 56.64 106.68Z" fill="white"/>
<path d="M88.38 117.78C108.544 117.78 124.89 101.434 124.89 81.27C124.89 61.1061 108.544 44.76 88.38 44.76C68.2161 44.76 51.87 61.1061 51.87 81.27C51.87 101.434 68.2161 117.78 88.38 117.78Z" fill="#E5E5E5"/>
<path d="M70.82 105.83C75.0781 105.83 78.53 102.378 78.53 98.12C78.53 93.8619 75.0781 90.41 70.82 90.41C66.5619 90.41 63.11 93.8619 63.11 98.12C63.11 102.378 66.5619 105.83 70.82 105.83Z" fill="#C8C8C8"/>
<path d="M67.77 91.1C68.47 90.7 69.31 90.58 70.09 90.45C70.98 90.31 71.89 90.47 72.75 90.69C74.18 91.05 75.47 91.8 76.47 92.89C77.29 93.77 77.72 94.65 77.93 95.15C78.09 95.53 78.33 96.19 78.45 97.05C78.58 97.99 78.52 98.76 78.45 99.24C78.26 100.55 77.78 101.51 77.49 102C77.22 102.47 76.54 103.52 75.29 104.41C74.82 104.74 74.39 104.97 74.08 105.12C74.63 104.69 75.45 103.96 76.14 102.83C77.04 101.38 77.27 100.05 77.34 99.55C77.59 97.77 77.02 96.04 75.9 94.66C74.78 93.28 73.32 92.35 71.74 91.73C71.06 91.46 70.35 91.26 69.63 91.15C69 91.05 68.41 91.1 67.78 91.1H67.77Z" fill="#9A9A9A"/>
<path d="M107.75 66.53C109.683 66.53 111.25 64.963 111.25 63.03C111.25 61.097 109.683 59.53 107.75 59.53C105.817 59.53 104.25 61.097 104.25 63.03C104.25 64.963 105.817 66.53 107.75 66.53Z" fill="#C8C8C8"/>
<path d="M106.36 59.84C106.68 59.66 107.06 59.6 107.41 59.54C107.81 59.47 108.23 59.54 108.62 59.65C109.27 59.81 109.86 60.16 110.31 60.65C110.68 61.05 110.88 61.45 110.97 61.67C111.04 61.84 111.15 62.14 111.21 62.53C111.27 62.95 111.24 63.31 111.21 63.52C111.12 64.11 110.9 64.55 110.77 64.77C110.65 64.98 110.34 65.46 109.77 65.87C109.56 66.02 109.36 66.12 109.22 66.19C109.47 66 109.84 65.66 110.16 65.15C110.57 64.49 110.67 63.89 110.7 63.66C110.81 62.85 110.56 62.07 110.05 61.44C109.54 60.81 108.88 60.39 108.16 60.11C107.85 59.99 107.53 59.9 107.2 59.84C106.91 59.8 106.64 59.82 106.36 59.82V59.84Z" fill="#9A9A9A"/>
<path d="M87.87 73.1799C90.6646 73.1799 92.93 70.9145 92.93 68.1199C92.93 65.3254 90.6646 63.0599 87.87 63.0599C85.0754 63.0599 82.81 65.3254 82.81 68.1199C82.81 70.9145 85.0754 73.1799 87.87 73.1799Z" fill="#C8C8C8"/>
<path d="M85.87 63.52C86.33 63.26 86.88 63.18 87.39 63.09C87.97 63 88.57 63.1 89.14 63.24C90.08 63.48 90.93 63.97 91.58 64.68C92.12 65.26 92.4 65.83 92.54 66.16C92.65 66.41 92.8 66.84 92.88 67.41C92.97 68.02 92.92 68.53 92.88 68.85C92.76 69.71 92.44 70.34 92.25 70.66C92.07 70.97 91.63 71.66 90.8 72.24C90.49 72.46 90.21 72.61 90 72.7C90.36 72.42 90.9 71.94 91.35 71.2C91.94 70.25 92.09 69.38 92.14 69.05C92.3 67.88 91.93 66.75 91.19 65.84C90.48 64.97 89.5 64.33 88.46 63.92C88.01 63.74 87.55 63.61 87.07 63.54C86.66 63.48 86.27 63.51 85.86 63.51L85.87 63.52Z" fill="#9A9A9A"/>
<path d="M75.51 55.64C76.4765 55.64 77.26 54.8565 77.26 53.89C77.26 52.9235 76.4765 52.14 75.51 52.14C74.5435 52.14 73.76 52.9235 73.76 53.89C73.76 54.8565 74.5435 55.64 75.51 55.64Z" fill="#C8C8C8"/>
<path d="M74.81 52.3C74.97 52.21 75.16 52.18 75.34 52.15C75.54 52.12 75.75 52.15 75.94 52.2C76.26 52.28 76.56 52.45 76.79 52.7C76.98 52.9 77.07 53.1 77.12 53.21C77.16 53.3 77.21 53.45 77.24 53.64C77.27 53.85 77.25 54.03 77.24 54.14C77.2 54.44 77.09 54.65 77.02 54.77C76.96 54.88 76.8 55.12 76.52 55.32C76.41 55.4 76.32 55.45 76.24 55.48C76.37 55.38 76.55 55.22 76.71 54.96C76.91 54.63 76.97 54.33 76.98 54.22C77.04 53.82 76.91 53.42 76.65 53.11C76.39 52.8 76.07 52.59 75.71 52.45C75.56 52.39 75.39 52.34 75.23 52.32C75.09 52.3 74.95 52.31 74.81 52.31V52.3Z" fill="#9A9A9A"/>
<path d="M59.64 86.84C60.6065 86.84 61.39 86.0565 61.39 85.09C61.39 84.1235 60.6065 83.34 59.64 83.34C58.6735 83.34 57.89 84.1235 57.89 85.09C57.89 86.0565 58.6735 86.84 59.64 86.84Z" fill="#C8C8C8"/>
<path d="M58.95 83.49C59.11 83.4 59.3 83.37 59.48 83.34C59.68 83.31 59.89 83.34 60.08 83.39C60.4 83.47 60.7 83.64 60.93 83.89C61.12 84.09 61.21 84.29 61.26 84.4C61.3 84.49 61.35 84.64 61.38 84.83C61.41 85.04 61.39 85.22 61.38 85.33C61.34 85.63 61.23 85.84 61.16 85.96C61.1 86.07 60.94 86.31 60.66 86.51C60.55 86.59 60.46 86.64 60.38 86.67C60.51 86.57 60.69 86.41 60.85 86.15C61.05 85.82 61.11 85.52 61.12 85.41C61.18 85.01 61.05 84.61 60.79 84.3C60.53 83.99 60.21 83.78 59.85 83.64C59.7 83.58 59.53 83.53 59.37 83.51C59.23 83.49 59.09 83.5 58.95 83.5V83.49Z" fill="#9A9A9A"/>
<path d="M96.38 50.87C97.3465 50.87 98.13 50.0865 98.13 49.12C98.13 48.1535 97.3465 47.37 96.38 47.37C95.4135 47.37 94.63 48.1535 94.63 49.12C94.63 50.0865 95.4135 50.87 96.38 50.87Z" fill="#C8C8C8"/>
<path d="M95.69 47.52C95.85 47.43 96.04 47.4 96.22 47.37C96.42 47.34 96.63 47.37 96.82 47.42C97.14 47.5 97.44 47.67 97.67 47.92C97.86 48.12 97.95 48.32 98 48.43C98.04 48.52 98.09 48.67 98.12 48.86C98.15 49.07 98.13 49.25 98.12 49.36C98.08 49.66 97.97 49.87 97.9 49.99C97.84 50.1 97.68 50.34 97.4 50.54C97.29 50.62 97.2 50.67 97.12 50.7C97.25 50.6 97.43 50.44 97.59 50.18C97.79 49.85 97.85 49.55 97.86 49.44C97.92 49.04 97.79 48.64 97.53 48.33C97.27 48.02 96.95 47.81 96.59 47.67C96.44 47.61 96.27 47.56 96.11 47.54C95.97 47.52 95.83 47.53 95.69 47.53V47.52Z" fill="#9A9A9A"/>
<path d="M92.25 91.56C93.8074 91.56 95.07 90.2975 95.07 88.74C95.07 87.1826 93.8074 85.92 92.25 85.92C90.6926 85.92 89.43 87.1826 89.43 88.74C89.43 90.2975 90.6926 91.56 92.25 91.56Z" fill="#C8C8C8"/>
<path d="M91.13 86.1801C91.39 86.0401 91.69 85.9901 91.98 85.9401C92.3 85.8901 92.64 85.9401 92.95 86.0301C93.47 86.1601 93.95 86.4401 94.31 86.8301C94.61 87.1501 94.77 87.4701 94.84 87.6501C94.9 87.7901 94.99 88.0301 95.03 88.3501C95.08 88.6901 95.05 88.9701 95.03 89.1501C94.96 89.6301 94.78 89.9801 94.68 90.1601C94.58 90.3301 94.33 90.7201 93.87 91.0401C93.7 91.1601 93.54 91.2401 93.43 91.3001C93.63 91.1401 93.93 90.8801 94.18 90.4601C94.51 89.9301 94.59 89.4401 94.62 89.2601C94.71 88.6101 94.5 87.9801 94.09 87.4701C93.68 86.9601 93.15 86.6301 92.57 86.4001C92.32 86.3001 92.06 86.2301 91.8 86.1901C91.57 86.1501 91.35 86.1701 91.12 86.1701L91.13 86.1801Z" fill="#9A9A9A"/>
<path d="M71.99 79.98C73.5474 79.98 74.81 78.7174 74.81 77.16C74.81 75.6025 73.5474 74.34 71.99 74.34C70.4326 74.34 69.17 75.6025 69.17 77.16C69.17 78.7174 70.4326 79.98 71.99 79.98Z" fill="#C8C8C8"/>
<path d="M70.88 74.6C71.14 74.46 71.44 74.41 71.73 74.36C72.05 74.31 72.39 74.36 72.7 74.45C73.22 74.58 73.7 74.86 74.06 75.25C74.36 75.57 74.52 75.89 74.59 76.07C74.65 76.21 74.74 76.45 74.78 76.77C74.83 77.11 74.8 77.39 74.78 77.57C74.71 78.05 74.53 78.4 74.43 78.58C74.33 78.75 74.08 79.14 73.62 79.46C73.45 79.58 73.29 79.66 73.18 79.72C73.38 79.56 73.68 79.3 73.93 78.88C74.26 78.35 74.34 77.86 74.37 77.68C74.46 77.03 74.25 76.4 73.84 75.89C73.43 75.38 72.9 75.05 72.32 74.82C72.07 74.72 71.81 74.65 71.55 74.61C71.32 74.57 71.1 74.59 70.87 74.59L70.88 74.6Z" fill="#9A9A9A"/>
<path d="M63.11 67.84C65.043 67.84 66.61 66.273 66.61 64.34C66.61 62.407 65.043 60.84 63.11 60.84C61.177 60.84 59.61 62.407 59.61 64.34C59.61 66.273 61.177 67.84 63.11 67.84Z" fill="#C8C8C8"/>
<path d="M61.73 61.15C62.05 60.97 62.43 60.91 62.78 60.85C63.18 60.78 63.6 60.85 63.99 60.96C64.64 61.12 65.23 61.47 65.68 61.96C66.05 62.36 66.25 62.76 66.34 62.98C66.41 63.15 66.52 63.45 66.58 63.84C66.64 64.26 66.61 64.62 66.58 64.83C66.49 65.42 66.27 65.86 66.14 66.08C66.02 66.29 65.71 66.77 65.14 67.18C64.93 67.33 64.73 67.43 64.59 67.5C64.84 67.31 65.21 66.97 65.53 66.46C65.94 65.8 66.04 65.2 66.07 64.97C66.18 64.16 65.93 63.38 65.42 62.75C64.91 62.12 64.25 61.7 63.53 61.42C63.22 61.3 62.9 61.21 62.57 61.15C62.28 61.11 62.01 61.13 61.73 61.13V61.15Z" fill="#9A9A9A"/>
<path d="M124.66 76.15C126.02 85.98 123.4 96.37 117.26 104.2C107.84 116.21 91.45 121.02 77.01 116.41C74.47 115.6 72.25 114.36 69.98 113.01C73.02 114.83 80.48 114.05 83.77 113.49C89.04 112.6 93.93 111.32 97.9 109.01C108.26 102.99 112.93 95.73 116.97 87.15C120.47 79.73 121.84 75.47 122.69 68.46C123.63 70.94 124.28 73.52 124.64 76.15H124.66Z" fill="#9A9A9A"/>
<path d="M91.88 112.84C93.813 112.84 95.38 111.273 95.38 109.34C95.38 107.407 93.813 105.84 91.88 105.84C89.947 105.84 88.38 107.407 88.38 109.34C88.38 111.273 89.947 112.84 91.88 112.84Z" fill="#C8C8C8"/>
<path d="M90.49 106.15C90.81 105.97 91.19 105.91 91.54 105.85C91.94 105.78 92.36 105.85 92.75 105.96C93.4 106.12 93.99 106.47 94.44 106.96C94.81 107.36 95.01 107.76 95.1 107.98C95.17 108.15 95.28 108.45 95.34 108.84C95.4 109.26 95.37 109.62 95.34 109.83C95.25 110.42 95.03 110.86 94.9 111.08C94.78 111.29 94.47 111.77 93.9 112.18C93.69 112.33 93.49 112.43 93.35 112.5C93.6 112.31 93.97 111.97 94.29 111.46C94.7 110.8 94.8 110.2 94.83 109.97C94.94 109.16 94.69 108.38 94.18 107.75C93.67 107.12 93.01 106.7 92.29 106.42C91.98 106.3 91.66 106.21 91.33 106.15C91.04 106.11 90.77 106.13 90.49 106.13V106.15Z" fill="#9A9A9A"/>
<path d="M111.25 102.4C114.238 102.4 116.66 99.9778 116.66 96.99C116.66 94.0021 114.238 91.58 111.25 91.58C108.262 91.58 105.84 94.0021 105.84 96.99C105.84 99.9778 108.262 102.4 111.25 102.4Z" fill="#C8C8C8"/>
<path d="M109.1 92.06C109.59 91.78 110.18 91.69 110.73 91.6C111.35 91.5 112 91.61 112.6 91.77C113.6 92.03 114.51 92.55 115.22 93.31C115.79 93.93 116.1 94.55 116.24 94.89C116.35 95.16 116.52 95.62 116.61 96.23C116.7 96.89 116.66 97.43 116.61 97.77C116.48 98.69 116.14 99.36 115.94 99.71C115.75 100.04 115.27 100.78 114.39 101.4C114.06 101.63 113.76 101.79 113.54 101.9C113.93 101.6 114.5 101.08 114.99 100.29C115.62 99.27 115.78 98.34 115.83 97.99C116.01 96.74 115.61 95.53 114.82 94.56C114.03 93.59 113.01 92.94 111.9 92.5C111.42 92.31 110.92 92.17 110.42 92.09C109.98 92.02 109.56 92.06 109.12 92.06H109.1Z" fill="#9A9A9A"/>
<path d="M117.52 80.67C119.453 80.67 121.02 79.103 121.02 77.17C121.02 75.237 119.453 73.67 117.52 73.67C115.587 73.67 114.02 75.237 114.02 77.17C114.02 79.103 115.587 80.67 117.52 80.67Z" fill="#C8C8C8"/>
<path d="M116.13 73.98C116.45 73.8 116.83 73.74 117.18 73.68C117.58 73.61 118 73.68 118.39 73.79C119.04 73.95 119.63 74.3 120.08 74.79C120.45 75.19 120.65 75.59 120.74 75.81C120.81 75.98 120.92 76.28 120.98 76.67C121.04 77.09 121.01 77.45 120.98 77.66C120.89 78.25 120.67 78.69 120.54 78.91C120.42 79.12 120.11 79.6 119.54 80.01C119.33 80.16 119.13 80.26 118.99 80.33C119.24 80.14 119.61 79.8 119.93 79.29C120.34 78.63 120.44 78.03 120.47 77.8C120.58 76.99 120.33 76.21 119.82 75.58C119.31 74.95 118.65 74.53 117.93 74.25C117.62 74.13 117.3 74.04 116.97 73.98C116.68 73.94 116.41 73.96 116.13 73.96V73.98Z" fill="#9A9A9A"/>
<path d="M124.51 65.82C124.681 65.82 124.82 65.6812 124.82 65.5099C124.82 65.3387 124.681 65.2 124.51 65.2C124.339 65.2 124.2 65.3387 124.2 65.5099C124.2 65.6812 124.339 65.82 124.51 65.82Z" fill="white"/>
<rect x="118" y="114" width="12" height="11" fill="white"/>
<path d="M122.036 124.19C123.966 124.19 125.545 122.605 125.545 120.667C125.545 118.711 123.966 117.143 122.036 117.143C120.106 117.143 118.527 118.729 118.527 120.667C118.527 122.605 120.106 124.19 122.036 124.19ZM132.564 108.333C134.494 108.333 136.073 109.919 136.073 111.857V129.476C136.073 131.414 134.494 133 132.564 133H111.509C109.579 133 108 131.414 108 129.476V111.857C108 109.901 109.579 108.333 111.509 108.333H113.264V104.81C113.264 99.9467 117.194 96 122.036 96C126.879 96 130.809 99.9467 130.809 104.81V108.333H132.564ZM122.036 99.5238C119.124 99.5238 116.773 101.885 116.773 104.81V108.333H127.3V104.81C127.3 101.885 124.949 99.5238 122.036 99.5238Z" fill="#7C3AED"/>
</g>
<defs>
<clipPath id="clip0_471_36196">
<rect width="110.88" height="110.88" fill="white" transform="translate(33 26)"/>
</clipPath>
</defs>
</svg>
