<?xml version="1.0" encoding="UTF-8"?><svg id="Layer_1" xmlns="http://www.w3.org/2000/svg" xmlns:xlink="http://www.w3.org/1999/xlink" viewBox="0 0 118.13 95.55"><defs><style>.cls-1,.cls-2,.cls-3{fill:none;}.cls-4{clip-path:url(#clippath);}.cls-5{fill:#f8c2cd;}.cls-6,.cls-7{fill:#fff;}.cls-8{stroke-width:.15px;}.cls-8,.cls-7,.cls-9,.cls-2,.cls-10,.cls-11,.cls-12,.cls-3,.cls-13{stroke-miterlimit:10;}.cls-8,.cls-7,.cls-9,.cls-10,.cls-11,.cls-3,.cls-13{stroke:#000;}.cls-14{clip-path:url(#clippath-1);}.cls-7{stroke-width:.5px;}.cls-9{stroke-width:.25px;}.cls-2{stroke-width:1.01px;}.cls-2,.cls-12{stroke:#221f1f;}.cls-10{fill:#c78447;}.cls-10,.cls-3,.cls-13{stroke-width:.34px;}.cls-11{stroke-width:.27px;}.cls-12{fill:#ccdfe4;stroke-width:.14px;}</style><clipPath id="clippath"><path class="cls-1" d="M32.94,21.28c-.43,1.9-2.67,3.02-2.67,3.02,0,0-1.55-1.97-1.12-3.87s1.62-3.25,2.67-3.02,1.55,1.97,1.12,3.87Z"/></clipPath><clipPath id="clippath-1"><path class="cls-1" d="M15.32,28.59c1.02,1.21,3.14,1.24,3.14,1.24,0,0,.46-1.94-.56-3.16s-2.43-1.77-3.14-1.24-.46,1.94,.56,3.16Z"/></clipPath></defs><ellipse class="cls-12" cx="24.53" cy="24.15" rx="24.02" ry="23.64"/><path class="cls-7" d="M90.02,58.97c.47,1.3,1.03,2.96,.88,4.42-.15,1.4-.67,2.73-1.45,3.7-1.3,1.6-1.73,4.73-2.12,6.92-.39,2.16-.63,4.36-.72,6.58-.03,.71,.03,1.4,.14,2.09,.11,.67-.03,1.62-.19,2.24-.39,1.48-1.59,.63-2.34,.36-.87-.31-1.75-.62-2.62-.94-1.64-.59-1.81-.8-3.51-1.76-.21-.12,1.27-3.96,1.45-4.17,.85-1.05,1.53-2.34,2.04-3.71,1.13-3.01,1.77-5.81,1.4-9.14-.05-.43-.25-3.01-.27-3.45"/><path class="cls-7" d="M36.67,20.45s-.48,.17-.51,.18c-.13,.05,1.41,1.39,1.76,1.7,.04,.03,.06,.05,.07,.06,1.35,1.06,2.99,1.81,4.83,2.05,.97,.13,1.97,.12,2.95,.1,4.04-.07,19,5.12,23,4.65,2.78-.33,5.51-1,8.06-1.99,1.87-.73,3.81-1.32,5.81-1.58s4.08-.25,6.01,.38c3.22,1.05,6.11,2.96,8.9,4.83,.64,.43,1.29,.87,1.85,1.37,1.51,1.37,1.92,3.08,2.5,4.81,.71,2.14,.73,4.7,.67,6.9-.04,1.64-.24,3.27-.59,4.88-.28,1.29-.82,2.53-.82,3.83,0,1.35-.13,2.73-.04,4.08,.05,.72,.67,1.22,1.21,1.72,.6,.55,1.05,1.39,1.46,2.26,.28,.76,.74,3.12,.63,4.59-.11,1.41-.6,2.76-1.35,3.76-1.26,1.66-1.6,4.81-1.93,7.01-.33,2.18-.51,4.39-.54,6.61,0,.71,.06,1.4,.2,2.08,.13,.66,.02,1.62-.13,2.25-.35,1.5-1.57,.7-2.33,.47-.88-.27-1.76-.54-2.64-.82-1.65-.51-1.83-.71-3.56-1.59-.21-.11,1.17-4.02,1.34-4.24,.83-1.09,1.47-2.41,1.94-3.81,1.05-3.06,1.61-5.89,1.15-9.2-.06-.43-.1-.87-.13-1.31l.09,.9c-.12-1.27-.33-2.52-.58-3.76-.21-1.05-.37-2.01-.88-2.89-.56-.94-1.2-1.76-1.9-2.52-.54-.38-1.05-.71-1.09-.68-.6,.46-1.22,.89-1.86,1.3-2.38,1.52-5.06,2.69-7.95,3.36-1.45,.34-2.99,.49-2.99,.49-1.9,.22-3.9,.26-3.9,.26-1.66,.03-2.07,0-2.89,.19-.56,.12-1.1,.33-1.66,.45-.49,.1-.97,.28-1.44,.45-.68,.24-1.36,.49-2.03,.77-.28,.12-.55,.24-.82,.38-.2,.1-.42,.21-.55,.39-.3,.43-.47,.93-.62,1.43-.07,.25-.14,.5-.23,.75s-.21,.48-.24,.74c0,.04,0,.08,0,.12v-.07c-.01,.29-.01,3.9,.05,4.37,.04,.3,.11,.6,.15,.9,.09,.7,.08,3.88-.28,4.6-.82,1.66-.76,4.01-.69,5.96,.03,.95,0,2.05,.15,2.98,.07,.48,.3,.87,.43,1.31,.13,.41,.12,.87,.11,1.31-.01,.48-.12,.73-.25,1.17-.09,.33-.5,.25-.69,.24-1.13-.05-2.29-.3-3.35-.87-.88-.47-1.7-1.11-2.5-1.81-.34-.3-.68-.6-1.02-.9,0,0,.87-1.72,.91-1.8,.42-.82,.81-1.68,1.21-2.52,.63-1.3,.68-2.7,.88-4.29,.04-.34,.09-.69,.05-1.03-.1-1.05-.46-1.76-.41-2.92,.08-1.96,.58-3.82,.34-5.77-.12-.99-.04-.92-.25-1.69-1.14,.47-2.05,.62-3.29,.73-.47,.04-.95,.09-1.42,.04-.68-.06-1.32-.3-1.93-.58-.33-.15-.93-.35-1.28-.55-.45-.3-.89-.6-1.34-.89,0,0-.04-.02-.07-.04-.07-.07-.15-.14-.23-.21,.05,.09,.05,.22,.05,.31,0,.2,0,.4,0,.6-.01,.53-.04,1.06-.07,1.6-.02,.44-.05,.88-.05,1.33,0,.07,0,.15,0,.22,.04,.3,.11,.6,.15,.9,.09,.7,.08,3.88-.28,4.6-.82,1.66-.76,4.01-.69,5.96,.03,.95,0,2.05,.15,2.98,.07,.48,.3,.87,.43,1.31,.13,.41,.12,.87,.11,1.31-.01,.48-.12,.73-.25,1.17-.09,.33-.5,.25-.69,.24-1.13-.05-2.29-.3-3.35-.87-.88-.47-1.7-1.11-2.5-1.81-.34-.3-.68-.6-1.02-.9,0,0,.87-1.72,.91-1.8,.42-.82,.81-1.68,1.21-2.52,.63-1.3,.68-2.7,.88-4.29,.04-.34,.09-.69,.05-1.03-.1-1.05-.46-1.76-.41-2.92,.08-1.96,.34-3.79,.34-5.77,0-.85-.56-2.14-.77-2.91-.57-2.11-1.53-4.08-2.35-6.1-.75-1.87-.86-4.01-1.79-5.8-.8-1.55-5.74-3.51-6.9-4.79-.85-.93-1.7-1.86-2.47-2.86-.43-.56-1.11-1.34-1.11-2.09,0-.23-3.57-.12-3.9-.12-.55,0-1.21,.03-1.72-.19-.58-.25-1.16-.78-1.69-1.13-.65-.44-1.33-.9-1.71-1.58-.21-.37-.32-.78-.49-1.17-.39-.88-1.38-1.47-1.96-2.23-.96-1.26-1.48-2.61-1.95-4.09,0-.7-.5-1.23-.87-1.81-.79-1.23-.97-1.44-1.38-2.2-.82-1.52-.9-3-.96-4.33-.04-.75-.08-1.68,.2-2.87,.19-.83,.18-1.47,.38-1.92,.45-1.02,.92-1.79,1.32-2.4,.21-.32,.38-.79,.97-1.6,.66-.9,1.09-1.09,1.24-1.23,.41-.37,.86-.65,1.68-1.02,.7-.32,1.15-.52,1.76-.7,.79-.24,1.47-.31,2.69-.42,1.35-.12,2.26-.1,2.53-.1,1.29,.03,.94,.05,2.1,.28,.13,.02,.7,.14,1.02,.28,.34,.15,.36,.48,.44,.57,.55,.6,.47,1.32,.8,2.03,.23,.49,.46,.56,2.3,1.93,.37,.28,1.3,.97,1.7,1.3,.81,.67,1.85,1.81,2.68,3.86"/><path class="cls-9" d="M35.27,14.46c.25-.19,.74-.5,1.19-.75,.18-.1,.78-.46,1.8-.77,1.32-.4,2.7-.62,4.07-.71,.6-.04,1.08-.21,1.4,.41,.36,.71,.35,1.72,.18,2.48-.14,.65-.44,1.25-.77,1.82-.56,.95-1.28,1.85-2.2,2.46-.79,.52-1.73,.8-2.66,.91-.53,.06-1.36,.03-1.43,.03-.46,0-1.03,.04-1.3,.02-.1-.27-.28-.71-.55-1.24-.5-.98-.84-1.47-.77-1.96,.27-.19,.56-.39,.65-.99,.11-.74,.22-1.09,.4-1.74Z"/><path class="cls-3" d="M8.63,22.56c-.74-.67-1.15-1.69-1.06-2.69,.05-.54,.23-1.05,.4-1.56,.63-1.79,1.31-3.55,1.72-5.4,.08-1.06-.13-1.5-.4-2.56-.12-.47-.18-.75-.27-1.13,1.21,.48,2.37,1.52,2.9,2.72,.49,1.1,.48,2.36,.19,3.52-.29,1.15-.76,2.29,.44,2.94l.73,.06s.42,.06,.43,.06c.14,.02,1.1-1.76,1.2-1.93,.47-.84,.9-1.71,1.56-2.42,.84-.9,2.12-1.62,3.25-2.1,1.61-.69,3.41-.78,5.14-.83,.74-.02,1.66-.1,2.39,.08,.81,.2,1.68,.28,2.51,.37,.04-.51,.07-1.06-.19-1.5-.32-.53-.99-.74-1.6-.87-1.19-.26-2.19-.91-3.05-1.73-.14-.13-.28-.26-.39-.42-.13-.18-.22-.4-.3-.61-.32-.87-.81-2.16-.65-3.08,1.12,.36,1.46,1.54,2.44,2.12,.52,.31,1.13,.43,1.73,.51,2.15,.29,3.94,.39,5.91,1.38,1.09,.98,2.14,1.69,2.25,3.27,.05,.65-.15,1.33-.07,1.95"/><path class="cls-11" d="M13.92,27c-.4,.22-.79,.64-1.17,.9-.91,.63-1.8,1.25-2.85,1.63-.96,.35-2,.51-3.02,.33-.32-.06-.64-.14-.94-.26-.95-.36-1.83-.91-2.57-1.61-.37-.35-.69-.77-1.01-1.17-.43-.55-.9-.92-.31-1.47,1.39-1.29,3.19-2.17,5.09-2.34,.67-.06,1.28,.04,1.94,.07,.1,0,.16,0,.22,.01,0,0,.36,.04,.67,.16,.51,.2,.64,.32,1.17,.61,.18,.1,.42,.14,.86,.23,.46,.1,.94,.14,1.2,.17,.26,.73,.55,1.68,.81,2.41,.08,.13,.1,.21-.1,.32Z"/><path class="cls-13" d="M78.05,82.69c-.22-.09-2.65,4.2-2.98,4.69-.08,.11,.56,.68,.63,.73,.76,.57,1.62,.74,2.48,.89,.93,.16,1.85,.13,2.79,.2s1.94-.06,2.85-.35c.58-.19,1.12-.49,1.66-.83,.2-.13,.4-.3,.52-.56,.16-.35,.17-.82,.23-1.2,0-.06,.08-.63,.13-.84,.01-.04-.02-.08-.06-.09-1.71-.36-2.91-.51-4.5-.98-.74-.22-1.84-.66-2.54-1.06-.38-.22-.82-.44-1.21-.6Z"/><path class="cls-13" d="M42.29,85.11c-.15-.13-.92,1.43-.99,1.6-.49,1.14-.97,2.25-1.52,3.37-.21,.43-.35,.43-.08,.78,.94,1.18,2.69,1.42,3.88,1.62,.88,.15,1.76,.19,2.64,.12,.79-.06,1.7-.07,2.4-.68,.87-.76,.88-1.89,1.15-3.35,0,.05-.42,.11-.46,.12-.36,.1-.76,.06-1.12,.05-.3-.01-.61-.06-.91-.17-.28-.1-.58-.15-.85-.29l-1.38-.71-1.77-1.39s-.88-.98-1-1.07Z"/><path d="M100.47,33.53c.22-.21,.58-.07,.81,0,.49,.17,1.06,.33,1.51,.34,4.69-.55,8.97,2.71,8.6,7.69-.13,1.78-1.1,3.22-1.79,4.72-1.27,2.69-2.37,5.65-1.59,8.59,.61,2.68,3.26,4.29,4.59,6.62,.14,.3,.22,.63,.24,.97-.01,.11,.08,.24-.2,.32h-.19c-.28-.12-.18-.19-.21-.28-.26-1.44-1.64-2.19-2.59-3.21-4.2-3.59-3.87-9.12-1.73-13.75,.63-1.53,1.41-2.86,1.42-4.11,.11-2.35-1.41-4.54-3.65-5.21-1.38-.34-3.56,.07-4.59-1.51-.2-.26-.33-.54-.45-.83-.03-.07-.02-.15-.11-.18l-.07-.17h0Z"/><path class="cls-8" d="M111.33,61.92c-.02,.33-.01,.94,.27,1.62,.13,.31,.65,1.43,1.77,1.86,.98,.37,1.34-.19,2.25,.26,.83,.4,1.24,1.21,1.37,1.52,.25,.59,.27,1.11,.26,1.4,.24-.37,.93-1.5,.78-3.05-.03-.35-.14-1.35-.88-2.29-.74-.96-1.72-1.33-1.98-1.43-1-.37-1.39-.1-2.21-.62-.55-.35-.75-.71-1.04-.65-.37,.08-.52,.78-.59,1.38Z"/><path class="cls-13" d="M29.7,11.77c-.35,.27-1.29,.62-1.69,1.35-.64,1.19-.37,2-.71,4.33-.28,1.92-.52,1.71-.5,2.63,.03,1.13,.39,1.32,1.35,3.98,.75,2.07,.87,2.92,.92,3.41,.11,1.06,.03,1.86,0,2.2-.12,1.32-.7,7.91,1.21,8.81,1.53,.72,4.5-2.27,5.9-4.33,.25-.37,1.32-1.99,1.85-4.4,.22-1,.63-2.96,.07-5.26-.31-1.28-.68-1.66-1.75-3.97-.85-1.82-1.44-3.35-1.8-4.34-.39,.1-1.09-.04-1.96-.36-.84-.31-1.4-.6-1.88-1.21-.42-.54-.66-1.39-1.01-2.84Z"/><path class="cls-13" d="M13.44,19.94c.24,.35,.55,.9,.71,1.63,.12,.53,.06,.69,.21,.99,.34,.67,1.06,.75,1.78,1.14,.67,.36,1.06,.93,1.85,2.06,1.03,1.47,.84,1.76,2.06,3.98,.84,1.53,1.11,1.73,1.92,3.34,.72,1.44,.53,1.33,.92,1.99,1.37,2.28,2.93,2.33,3.05,3.69,.08,.94-.57,1.89-1.28,2.34-.19,.12-.71,.46-1.35,.38-.63-.08-1.03-.52-1.65-1.2-.37-.41-.63-.81-1.15-1.59-.65-.99-.65-1.09-1.01-1.6-.78-1.11-.98-.93-1.61-1.83-.67-.95-1-1.93-1.32-2.9-.27-.81-.2-.82-.41-1.29-.36-.79-.7-1.08-1.33-2.06,0,0-.45-.69-.82-1.4-.22-.42-.86-1.7-1.07-3.41-.22-1.82,.17-3.34,.5-4.26Z"/><path class="cls-10" d="M35.84,12.7c.18-1.08,.13-1.6,.07-1.95-.05-.3-.22-1.06-.77-1.87-.1-.15-.57-.82-1.49-1.4-1.08-.69-2.12-.85-3.52-1.06-1.11-.17-1.33-.09-2.39-.32-1.04-.23-1.55-.34-1.98-.69-.57-.47-.66-.96-1.46-1.53-.29-.2-.55-.33-.72-.41-.11,.39-.27,1.12-.06,1.97,.25,1,.86,1.62,1.39,2.14,.36,.36,1,.98,2,1.38,1.05,.41,1.43,.16,2.05,.69,.1,.09,.73,.64,.82,1.48,.02,.23,0,.35-.03,.56-.07,.83,.17,1.68,.48,2.25,.48,.86,1.21,1.26,1.81,1.59,.89,.49,1.76,.96,2.49,.64,.78-.35,.96-1.42,1.3-3.48"/><path class="cls-10" d="M9.02,9.22c.06,.26,.15,.65,.27,1.13,.29,1.1,.38,1.24,.44,1.63,.09,.55-.08,1.15-.41,2.34-.29,1.04-.61,1.91-.81,2.46-.4,1.09-.53,1.3-.69,1.97-.19,.78-.3,1.22-.24,1.81,.13,1.26,.93,2.11,1.2,2.39,.75,.78,1.58,1.07,2.1,1.25,.86,.29,1.62,.34,2.11,.33-.17-1.09-.15-1.49-.11-1.96,.09-1.12,.5-2.94,.63-3.2,.13-.24,.35-.66,.2-.85-.18-.22-.65,.09-1.16-.12-.52-.22-.71-.82-.75-.95-.2-.63,.09-.98,.31-2,.11-.5,.32-1.46,.11-2.51-.03-.18-.21-1.06-.88-1.96-.81-1.1-1.85-1.58-2.33-1.77Z"/><path class="cls-13" d="M56.92,87.84s-.79,1.49-.89,1.82c-.23,.72-.5,1.43-.81,2.12-.16,.35-.33,.7-.52,1.05-.17,.31-.32,.48-.07,.78,.94,1.18,2.69,1.42,3.88,1.62,.88,.15,1.76,.19,2.64,.12,.79-.06,1.7-.07,2.4-.68,.87-.76,.8-1.99,1.07-3.45,0,.05-.34,.21-.38,.22-.36,.1-.76,.06-1.12,.05-.3-.01-.61-.06-.91-.17-.28-.1-.58-.15-.85-.29l-1.38-.71s-1.77-1.39-1.77-1.39c-.35-.29-.7-.58-1.05-.87-.07-.06-.24-.23-.24-.23Z"/><path class="cls-13" d="M92.1,85.12c-.23-.08-2.53,4.32-2.85,4.82-.07,.12,.58,.66,.65,.71,.77,.53,1.64,.67,2.5,.78,.93,.12,1.86,.05,2.79,.07s1.93-.15,2.84-.48c.58-.21,1.11-.54,1.64-.91,.2-.14,.4-.32,.51-.58,.15-.36,.15-.83,.2-1.21,0-.07,.09-.93,.14-.92-1.77-.3-2.99-.38-4.61-.79-.75-.19-1.86-.57-2.56-.94-.39-.2-.83-.4-1.23-.54Z"/><path class="cls-5" d="M36.12,17.54c.35-1.39,.52-2.08,.83-2.52,.61-.87,1.56-1.13,3.35-1.63,1.08-.3,2-.43,2.6-.5,.02,.55-.02,1.57-.53,2.69-.86,1.88-2.44,2.69-2.83,2.88-1.68,.81-3.23,.57-3.74,.47,.06-.32,.16-.81,.3-1.39Z"/><path class="cls-5" d="M12.44,26.22c-.2-.31-.53-.77-1.04-1.19-1.3-1.07-2.71-1.02-3.47-.99-.87,.03-1.51,.24-2.1,.43-1.13,.36-2.02,.86-2.62,1.24,.24,.54,.88,1.82,2.18,2.61,1.63,.98,3.18,.51,3.81,.32,1.76-.53,2.83-1.85,3.24-2.42Z"/><g><ellipse class="cls-5" cx="28.42" cy="39.7" rx="7.73" ry="6.08" transform="translate(-13.49 14.66) rotate(-23.55)"/><g><path d="M24.78,40.93c.23,.24,.55,.38,.82,.58,.24,.18,.43,.41,.57,.67,.28,.53-.08,.86-.63,.85-.72-.02-1.43-.43-1.8-1.05-.28-.46-.36-1.02-.25-1.55,.04-.21,.45-1.37,.81-.93,.08,.1,.08,.23,.09,.35,.03,.36,.1,.73,.33,1.01,.02,.02,.04,.04,.06,.06Z"/><path d="M31.8,37.87c.02,.33-.1,.66-.13,1-.03,.29,0,.59,.1,.88,.2,.57,.69,.53,1.05,.12,.48-.54,.66-1.34,.46-2.03-.15-.52-.51-.96-.96-1.24-.18-.11-1.31-.61-1.23-.04,.02,.12,.11,.22,.19,.31,.24,.26,.46,.57,.51,.93,0,.03,0,.06,0,.09Z"/></g></g><path class="cls-6" d="M32.94,21.28c-.43,1.9-2.67,3.02-2.67,3.02,0,0-1.55-1.97-1.12-3.87s1.62-3.25,2.67-3.02,1.55,1.97,1.12,3.87Z"/><g class="cls-4"><ellipse cx="31.51" cy="19.43" rx="3.02" ry="1.56" transform="translate(6.45 46.67) rotate(-79.04)"/></g><circle class="cls-6" cx="31.08" cy="18.69" r=".54"/><path class="cls-6" d="M15.32,28.59c1.02,1.21,3.14,1.24,3.14,1.24,0,0,.46-1.94-.56-3.16s-2.43-1.77-3.14-1.24-.46,1.94,.56,3.16Z"/><g class="cls-14"><ellipse cx="15.73" cy="26.77" rx="1.29" ry="2.46" transform="translate(-13.47 16.21) rotate(-39.69)"/></g><ellipse class="cls-6" cx="15.78" cy="26.09" rx=".46" ry=".43"/><path class="cls-13" d="M51.31,25.5c1.73,.26,8.43,2.13,10.11,2.52,5.38,1.23,9.58,1.07,9.99,.97,3.78-.94,4.69-1.66,7.04-1.61,1.3,.02,3.39,1.23,4.21,2.05,2.06,2.06-3.51,1.71-4.67,2.55-1.27,.92-1.37,2.41-3.54,2.16-.87-.1-1.72-.4-2.6-.36-1.55,.07-2.71,1.15-4.07,1.76-2.22,.99-4.7,.5-6.92-.17-1.09-.33-16.08-10.44-14.52-10.8,.87-.2,3.92,.79,4.97,.95Z"/><path d="M98.94,31.65c.58,.38,1.14,.94,1.41,1.29,1.09,1.38,1.7,3.07,1.88,4.87,.12,1.18,.7,3.27-.42,4.08-.52,.38-1.2,.41-1.81,.24-.82-.23-1.55-.81-2-1.58-.73-1.24-.72-2.89-.21-4.25,.15-.42,.35-.82,.42-1.26,.21-1.26-1.32-1.66-1.17-2.73,.19-1.35,1.06-1.18,1.89-.65Z"/><path d="M50.75,41.6c-.24,.22-.44,.43-.6,.67-.31,.26-.49,.65-.55,1.08-.22,.38-.3,.85-.25,1.31-.12,.2-.21,.43-.26,.72-.08,.51-.2,1.06-.16,1.58,.01,.13,.04,.25,.07,.37-.24,.39-.42,.92-.35,1.42,.02,.22,.06,.43,.13,.63-.02,.16-.04,.33-.03,.49-.02,.11-.02,.23-.02,.34-.02,.27,0,.5,.04,.72-.2,.59-.51,1.13-.48,1.81-.41,.35-.58,.94-.55,1.52-.16-.28-.37-.52-.64-.68-.06-.9-.09-1.94-.32-2.8-.3-1.16-.78-2.57-1.31-3.62-.06-.12-.12-.23-.18-.34,.08-.35,.11-.7,.08-1.08-.02-.3-.09-.59-.16-.88-.01-.07-.02-.14-.03-.21-.03-.43-.21-.84-.48-1.15-.03-.66-.19-1.23-.88-1.83-1.49-1.3-3.27,.76-2.5,2.28,.08,.17,.05,.76,.09,.96,.09,.49,.19,.98,.28,1.48,.04,.19,.07,.39,.05,.59-.03,.24-.15,.45-.23,.67-.25,.79,.11,1.63,.47,2.38,.4,.84,.81,1.69,1.4,2.4,.17,.2,.35,.4,.43,.65,.05,.18,.05,.37,.05,.55,.03,.81,.28,1.59,.54,2.36,.22,.66,.43,1.32,.65,1.97,.05,.16,.1,.32,.13,.48,.03,.24,0,.48,0,.72,0,.74,.23,1.46,.47,2.16,.41,1.22,.9,2.5,2.38,2.6,1.09,.08,2.08-.81,1.88-2.1-.04-.3,.56-.9,.65-1.24,.21-.86,.18-1.85,.31-2.74,.18-1.25,.98-2.16,1.45-3.3,.54-1.31,.84-2.73,.88-4.15,.44-.69,.35-1.68-.21-2.28-.11-.12-.24-.23-.29-.39-.03-.11-.01-.23,0-.35,.19-1.11,.73-2.59,.49-3.7,.33-1.53-1.16-3.33-2.46-2.1Z"/><path d="M68.66,58.09c-.34-.34-.39-.77-.87-1.03-.53-.28-1.2-.33-1.77-.18-.74,.2-1.6,.32-2.04,1.01-.06,.04-.12,.07-.17,.11-.02,.01-.58-.15-.66-.16-.29-.01-.57,.05-.83,.16-.23,.1-.42,.36-.63,.44-.23,.09-.57,.02-.83,.02-.19-.56-.38-1.14-.34-1.74,.02-.28,.08-.57,.05-.85-.03-.23-.12-.45-.19-.67-.2-.63-.52-2.44,.58-2.35,.11,0,.21,.06,.31,.1,.4,.16,.85,.16,1.25,0,.12-.05,.24-.11,.37-.12,.11,0,.21,.03,.32,.05,1.03,.25,2.7-.26,3.16-1.28,.62-1.38-.36-2.79-1.8-2.86-.7-.03-1.36-.47-2.02-.45-.5,.02-.95,.46-1.45,.38-.32-.05-.57-.3-.87-.41-.27-.1-.57-.08-.86-.13-.59-.11-.82-.68-.92-1.21-.04-.21,0-1.8-.12-1.84,.98,.32,2.15-.15,2.65-1.05,.05-.09,.1-.19,.18-.26,.08-.06,.18-.09,.27-.11,1.68-.42,5.06-.5,4.92-2.91-.03-.48-.2-.96-.52-1.32-.69-.77-1.42-.24-2.21-.55-.23-.09-.43-.23-.66-.32-.42-.19-.89-.22-1.35-.21-.55,.01-1.11,.1-1.6,.35-.5,.25-.79,.65-1.04,1.12-.52-.32-1.72-.31-2.29-.11-.7,.25-1.53,.73-1.84,1.43-.06,.14-.11,.3-.14,.47-.4,.59-.5,1.34-.14,2.2,.24,.57,.04,1.8,.06,2.43,.03,.94,.13,1.9,.48,2.78,.06,.15,.13,.3,.13,.46,0,.13-.03,.26-.06,.4-.13,.69,.03,1.39,.28,2.03,.08,.2,.89,1.53,.75,1.69-.66,.79-.32,2.09,.31,2.8,.01,.01,.02,.03,.03,.04,.29,.33-.12,1.47,0,1.9,.06,.26,.17,.51,.21,.77,.04,.25,.01,.51,0,.76-.02,.72,.14,1.45,.53,2.05s1.06,1.04,1.77,1.07c.69,.03,1.36-.3,2.05-.32,.75-.03,1.58,.29,2.22-.11,.21-.13,.38-.34,.62-.42,.23-.08,.47-.02,.71-.04,.45-.03,.85-.32,1.27-.48,.54-.2,1.13-.21,1.69-.34,1.41-.34,2.16-2.12,1.06-3.23Z"/><path d="M83.52,55c.17-.77,.18-1.57-.24-2.21-.14-.22-.33-.4-.43-.64-.27-.62,.11-1.31,.19-1.98,.09-.72-.22-1.47-.76-1.95-.28-.25-.54-.32-.71-.63-.21-.39-.23-.86-.49-1.25-.41-.62-1.01-1-1.77-.84-.55,.12-1.03,.44-1.51,.74-.11,.07-.22,.13-.35,.14-.1,0-.2-.03-.3-.06-.7-.2-1.28,.06-1.68,.63-.06,.09-.11,.16-.16,.23-1.91-.37-2.34,3.48-.35,4.11,.99,.31,1.61-.07,2.37-.65,.07-.05,.13-.1,.22-.12,.1-.03,.21,0,.31,.01,.66,.1,1.47-.41,1.52,.57,.03,.52-.03,1.04-.02,1.56,.01,.47,.52,1.41,.04,1.75-.27,.19-.62,.18-.94,.21-.38,.04-.75,.16-1.12,.28-.47,.15-.94,.31-1.4,.46-.26-.83-1.09-1.45-1.96-1.47-.12,0-.25,0-.33-.08-.09-.08-.1-.21-.12-.33-.08-.33-.34-.58-.55-.84-.42-.51-.33-1.19-.71-1.75,.1-1.16-.69-2.07-.72-3.24-.04-1.27,.29-2.53,.69-3.72,.17-.5,.36-1.01,.29-1.53,.54,.14,1.16-.03,1.48-.51,.18-.27,.25-.62,.46-.86,.27-.3,.7-.39,1.1-.4s.81,.03,1.2-.08c.76-.21,1.13-1.3,1.31-1.99,.27-1.03-.1-2.33-1.11-2.85-.38-.2-.79-.24-1.17-.04-.59,.32-.95,.58-1.65,.72-.59,.12-1.04,.54-1.6,.73-.72,.24-1.34,.83-1.89,1.34-.6,.56-1.15,1.17-1.64,1.82-.43,.57-.83,1.21-.9,1.92-.07,.75,.23,1.46,.29,2.19s0,1.59-.1,2.3c-.12,.78-.15,1.52,0,2.17,.28,1.23-.47,2.35,.21,3.57,.04,.08,.11,.17,.2,.15s.06-.2-.02-.15c.12,.62,.46,1.17,.79,1.71,.24,.4,.49,.8,.73,1.2,.26,.42,.52,.85,.77,1.27,.16,.27,.33,.54,.55,.77,.3,.32,.7,.54,1.12,.63,.12,.03,.25,.05,.37,.1,.16,.07,.28,.2,.4,.32,1.05,1.06,2.15,1.51,3.56,1.09,1.57-.46,3.14-.75,4.6-1.53,.31-.17,.62-.36,.87-.61,.4-.42,.6-.98,.78-1.53,.09-.28,.17-.56,.23-.86Z"/><path d="M99.62,48.05c-.15-.11-.3-.22-.45-.31-.12-.07-.25-.15-.3-.27-.04-.11-.03-.22-.02-.34,.03-.86-.73-1.51-1.31-2.14-.7-.75-1.23-1.66-1.55-2.64-.1-.31-.18-.64-.37-.91-.36-.54-1.05-.76-1.51-1.23-.47-.47-.66-1.15-.95-1.75-.33-.68-.81-1.29-1.4-1.76-.3-.24-.63-.45-.84-.77-.27-.39-.33-.9-.65-1.26-.2-.23-.49-.37-.67-.62-.17-.23-.21-.53-.29-.81-.35-1.18-1.77-2.29-3.01-1.73-1.07,.48-1.46,1.94-1.63,2.99-.19,1.19,.08,2.42-.05,3.62-.07,.66-.26,1.38,.07,1.96,.07,.12,.16,.23,.19,.37,.04,.15,.01,.31,0,.46-.12,1.01,.43,1.92,.69,2.86,.31,1.12-.14,1.66-.41,2.7-.28,1.06,.44,2.13,.52,3.22,.04,.57-.09,1.14-.04,1.71s.34,1.09,.37,1.68c.04,.94-.1,2.06,.56,2.82,.89,1.03,2.36,.65,3.22-.15,1.13-1.05,.59-2.06,.47-3.34-.05-.55,.14-1.11,.04-1.65-.09-.45-.38-.84-.49-1.29-.13-.5-.02-1.03,.09-1.54,1.17-.14,2.1-.8,3.26-.99,.21-.04,.44-.06,.62,.05,.12,.08,.21,.2,.29,.32,.38,.58,.76,1.17,1.12,1.76,.71,1.15,1.87,3.4,3.53,3.13,.14-.02,.28-.04,.42-.07,.99-.16,1.73-.91,1.75-1.93,.02-.87-.57-1.64-1.25-2.17Zm-9.16-4.71c-.04,.05-.08,.11-.13,.16-.03,.02-.05,.04-.09,.08-.05,.03-.08,.06-.11,.07-.06,.02-.11,.04-.17,.07-.05,.02-.09,.03-.12,.04,0,0,0,0,0,0,.01,0,.02,0,.04-.01-.02,0-.03,0-.05,0,0,0-.01-.02-.02-.03-.04-.34-.18-.67-.42-.94,.13-.57,0-1.16-.28-1.69,.06-.25,.1-.5,.11-.75,.15,.14,.33,.25,.5,.35,.21,.73,.64,1.29,1.2,2.05-.19,.25-.58,.85-.45,.61Z"/><path d="M102.12,71.33c.02-.69,.69-1.3,.9-1.69,.84-1.54,1.53-3.3,1.41-5.11-.08-1.18-.47-4.81-1.71-5.42-.58-.29-1.25-.2-1.82,.07-.76,.36-1.15,2.51-1.47,3.35-.51,1.35-.22,2.96,.51,4.23,.22,.39,.48,.75,.63,1.17,.42,1.21-1.31,2.06-.91,3.07,1.09,2.78,2.42,1.56,2.46,.31Z"/><path class="cls-6" d="M10.81,7.74c.56-.99,2.04-1.83,2.98-2.41,1.44-.88,4.78-2.63,6.3-1.45,2,1.56-2.47,1.77-3,1.87-2.15,.43-4.22,1.13-6.28,1.98Z"/><ellipse class="cls-2" cx="24.53" cy="24.15" rx="24.02" ry="23.64"/></svg>