<svg width="89" height="50" viewBox="0 0 89 50" fill="none" xmlns="http://www.w3.org/2000/svg">
<g clip-path="url(#clip0_428_33905)">
<path fill-rule="evenodd" clip-rule="evenodd" d="M39.5915 30.1583C39.3845 29.3046 38.9584 28.6199 38.3146 28.1032C37.6703 27.587 36.8876 27.3287 35.9673 27.3287C35.0012 27.3287 34.2129 27.5759 33.6034 28.0694C32.9934 28.5639 32.608 29.2602 32.4468 30.1583H39.5915ZM32.2741 33.6954C32.2741 36.3231 33.5399 37.637 36.0711 37.637C37.4286 37.637 38.4526 37.0977 39.1427 36.0199H45.1832C43.9633 39.9722 40.9148 41.9486 36.0363 41.9486C34.5408 41.9486 33.1717 41.7296 31.929 41.2921C30.6869 40.8542 29.6225 40.231 28.7365 39.4222C27.8509 38.6139 27.1664 37.6481 26.6828 36.525C26.1998 35.4023 25.958 34.1449 25.958 32.7523C25.958 31.3148 26.1882 30.018 26.6481 28.8611C27.1085 27.7046 27.7643 26.7222 28.6156 25.9139C29.4669 25.1051 30.497 24.4819 31.7049 24.044C32.9128 23.606 34.2763 23.387 35.7946 23.387C37.2906 23.387 38.6365 23.606 39.8333 24.044C41.0296 24.4819 42.0421 25.1167 42.8702 25.9472C43.6988 26.7782 44.3315 27.7944 44.7687 28.9958C45.2059 30.1977 45.4245 31.5509 45.4245 33.0555V33.6954H32.2741Z" fill="#101019"/>
<path fill-rule="evenodd" clip-rule="evenodd" d="M52.8057 32.5838C52.8057 33.1454 52.9095 33.6671 53.1161 34.15C53.3235 34.6333 53.6056 35.0542 53.9622 35.4134C54.3189 35.7727 54.7441 36.0537 55.2392 36.2555C55.7338 36.4579 56.2688 36.5588 56.844 36.5588C57.3961 36.5588 57.9195 36.4579 58.4146 36.2555C58.9092 36.0537 59.3349 35.7727 59.6915 35.4134C60.0481 35.0542 60.3358 34.6333 60.5544 34.15C60.773 33.6671 60.8823 33.1565 60.8823 32.6176C60.8823 32.056 60.773 31.5393 60.5544 31.068C60.3358 30.5963 60.0421 30.181 59.6744 29.8213C59.3062 29.462 58.8745 29.1815 58.3798 28.9792C57.8852 28.7773 57.3729 28.6759 56.844 28.6759C56.2915 28.6759 55.7741 28.7829 55.2906 28.9958C54.8075 29.2092 54.3819 29.4903 54.0137 29.8384C53.6454 30.1866 53.3523 30.5963 53.1337 31.068C52.915 31.5393 52.8057 32.0449 52.8057 32.5838ZM66.8186 24.0273V40.1296C66.8186 41.0954 66.7611 41.9597 66.6463 42.7236C66.531 43.487 66.3702 44.1611 66.1632 44.7449C65.8872 45.4861 65.4555 46.1764 64.8687 46.8167C64.2819 47.4565 63.5742 48.0125 62.746 48.4842C61.9174 48.9555 60.98 49.3259 59.9333 49.5958C58.8861 49.8653 57.7527 50 56.5332 50C55.1526 50 53.8872 49.8315 52.7367 49.4949C51.5862 49.1579 50.5793 48.6917 49.7165 48.0967C48.8536 47.5014 48.1459 46.8055 47.5938 46.0083C47.0417 45.2106 46.6735 44.3403 46.4892 43.3972H53.5306C53.9678 44.543 54.9571 45.1153 56.499 45.1153C57.8106 45.1153 58.8171 44.756 59.5188 44.0375C60.2204 43.3185 60.5715 42.3194 60.5715 41.0393V39.3884C60.1111 39.8153 59.6684 40.169 59.2427 40.4495C58.8171 40.7305 58.3854 40.9606 57.9482 41.1403C57.5114 41.3199 57.051 41.4491 56.568 41.5278C56.0849 41.6065 55.555 41.6458 54.9803 41.6458C53.7145 41.6458 52.5529 41.4324 51.4941 41.0055C50.4358 40.5787 49.521 39.9838 48.7503 39.2199C47.9796 38.4565 47.3812 37.5412 46.9556 36.4745C46.5299 35.4079 46.3169 34.2231 46.3169 32.9208C46.3169 31.5958 46.5471 30.3662 47.007 29.2319C47.4674 28.0977 48.0945 27.1097 48.8883 26.2671C49.6822 25.4254 50.6252 24.7625 51.7182 24.2796C52.8113 23.7967 54.0021 23.5555 55.2906 23.5555C57.3845 23.5555 59.145 24.319 60.5715 25.8463V24.0273H66.8186Z" fill="#101019"/>
<path fill-rule="evenodd" clip-rule="evenodd" d="M74.0482 32.6176C74.0482 33.1792 74.1515 33.7014 74.3589 34.1843C74.566 34.6667 74.8476 35.088 75.2042 35.4472C75.5608 35.8065 75.9865 36.087 76.4816 36.2894C76.9762 36.4912 77.5112 36.5926 78.0864 36.5926C78.6385 36.5926 79.1619 36.4912 79.657 36.2894C80.1517 36.087 80.5773 35.8065 80.9339 35.4472C81.2906 35.088 81.5782 34.6722 81.7968 34.2009C82.0154 33.7292 82.1247 33.2236 82.1247 32.6847C82.1247 32.1458 82.0154 31.6352 81.7968 31.1523C81.5782 30.6695 81.2906 30.2482 80.9339 29.8889C80.5773 29.5296 80.1517 29.2486 79.657 29.0468C79.1619 28.8445 78.6385 28.7435 78.0864 28.7435C77.5112 28.7435 76.9762 28.8445 76.4816 29.0468C75.9865 29.2486 75.5608 29.5296 75.2042 29.8889C74.8476 30.2482 74.566 30.6579 74.3589 31.1185C74.1515 31.5787 74.0482 32.0787 74.0482 32.6176ZM81.9177 24.0273H88.199V41.3088H81.9177V39.3884C80.5829 41.0283 78.7765 41.8477 76.4987 41.8477C75.2102 41.8477 74.025 41.6176 72.9435 41.157C71.8621 40.6968 70.9186 40.0509 70.1136 39.2199C69.3082 38.3894 68.6811 37.4125 68.2323 36.2894C67.7835 35.1667 67.5593 33.9426 67.5593 32.6176C67.5593 31.3824 67.7779 30.2088 68.2152 29.0972C68.6524 27.9857 69.2619 27.0144 70.0446 26.1833C70.8269 25.3523 71.7588 24.6954 72.8403 24.2125C73.9217 23.7296 75.1181 23.488 76.4297 23.488C78.6385 23.488 80.468 24.2403 81.9177 25.7454V24.0273Z" fill="#101019"/>
<path d="M9.06842 13.8889H0.5L17.4053 41.8981L27.5947 24.7685H22.5V19.213L17.1737 27.5463L9.06842 13.8889Z" fill="#101019"/>
<path d="M23.1947 5.55554H16.7104V12.037H23.1947V5.55554Z" fill="#1DA1CF"/>
<path d="M31.0683 9.72223H26.8999V13.8889H31.0683V9.72223Z" fill="#CF323F"/>
<path d="M31.0683 1.85184H26.4368V6.48147H31.0683V1.85184Z" fill="#3DA547"/>
<path d="M37.0895 0H33.3843V3.7037H37.0895V0Z" fill="#ED9B3A"/>
<path d="M38.0158 7.87036H34.3105V11.5741H38.0158V7.87036Z" fill="#1DA1CF"/>
<path d="M31.0685 16.2037H23.658V23.6111H31.0685V16.2037Z" fill="#783882"/>
</g>
<defs>
<clipPath id="clip0_428_33905">
<rect width="88" height="50" fill="white" transform="translate(0.5)"/>
</clipPath>
</defs>
</svg>
